<?xml version="1.0" encoding="UTF-8" standalone="no"?>
<!-- Created with Inkscape (http://www.inkscape.org/) -->

<svg
   xmlns:dc="http://purl.org/dc/elements/1.1/"
   xmlns:cc="http://creativecommons.org/ns#"
   xmlns:rdf="http://www.w3.org/1999/02/22-rdf-syntax-ns#"
   xmlns:svg="http://www.w3.org/2000/svg"
   xmlns="http://www.w3.org/2000/svg"
   xmlns:sodipodi="http://sodipodi.sourceforge.net/DTD/sodipodi-0.dtd"
   xmlns:inkscape="http://www.inkscape.org/namespaces/inkscape"
   version="1.0"
   width="1024"
   height="768"
   id="svg2"
   sodipodi:docname="tyu.svg"
   inkscape:version="0.92.2 (5c3e80d, 2017-08-06)">
  <metadata
     id="metadata3715">
    <rdf:RDF>
      <cc:Work
         rdf:about="">
        <dc:format>image/svg+xml</dc:format>
        <dc:type
           rdf:resource="http://purl.org/dc/dcmitype/StillImage" />
        <dc:title></dc:title>
      </cc:Work>
    </rdf:RDF>
  </metadata>
  <sodipodi:namedview
     pagecolor="#ffffff"
     bordercolor="#666666"
     borderopacity="1"
     objecttolerance="10"
     gridtolerance="10"
     guidetolerance="10"
     inkscape:pageopacity="0"
     inkscape:pageshadow="2"
     inkscape:window-width="1536"
     inkscape:window-height="1118"
     id="namedview3713"
     showgrid="false"
     inkscape:zoom="0.42421843"
     inkscape:cx="432.91296"
     inkscape:cy="923.35555"
     inkscape:window-x="-11"
     inkscape:window-y="-11"
     inkscape:window-maximized="1"
     inkscape:current-layer="svg2"
     showguides="true"
     inkscape:guide-bbox="true">
    <sodipodi:guide
       position="158.35037,46.671688"
       orientation="0,1"
       id="guide5088"
       inkscape:locked="false" />
  </sodipodi:namedview>
  <defs
     id="defs4" />
  <path
     style="fill:#00ffcc;fill-opacity:1;stroke:none;stroke-width:0.23258471;stroke-miterlimit:4;stroke-dasharray:none;stroke-opacity:1"
     d="m 0.8205315,-1.33398 v 768 H 1024.8205 v -768 z M 660.83364,31.12631 c 7.73459,-0.0284 15.75608,0.4136 24.0681,1.33922 158.10877,17.60684 180.03905,141.82753 177.73594,213.90769 -2.96722,92.86485 -72.29623,166.28391 -159.30391,230.63914 -70.04976,51.81231 -153.42143,98.75387 -191.33315,165.73983 l 0.002,1.56243 c -0.1449,-0.26228 -0.29751,-0.52135 -0.44383,-0.78298 -0.14629,0.26163 -0.29892,0.5207 -0.44381,0.78298 l 0.002,-1.56243 C 473.20524,575.76623 389.83357,528.82467 319.78376,477.01236 232.77614,412.65713 163.44904,339.23808 160.48183,246.37322 158.17873,174.29306 180.29748,51.42888 338.21581,32.46553 345.13414,31.63476 351.89333,31.48 358.429,31.45757 435.54919,31.19285 484.649,74.31567 511.55876,151.79658 538.01244,75.62891 586.06587,31.40098 660.83364,31.12631 Z"
     id="rect851"
     inkscape:connector-curvature="0" />
  <g
     aria-label="rLh"
     style="font-style:normal;font-weight:normal;font-size:50.79999924px;line-height:1.25;font-family:sans-serif;letter-spacing:0px;word-spacing:0px;fill:#ff0066;fill-opacity:1;stroke:none;stroke-width:0.26458332"
     id="text12"
     transform="matrix(4.50062,0,0,4.50062,-841.39551,431.82216)">
    <text
       xml:space="preserve"
       style="font-style:normal;font-weight:normal;font-size:42.66078949px;line-height:1.25;font-family:sans-serif;letter-spacing:0px;word-spacing:0px;fill:#000000;fill-opacity:1;stroke:none;stroke-width:0.0587882"
       x="166.25029"
       y="98.70874"
       id="text108"><tspan
         sodipodi:role="line"
         id="tspan106"
         x="166.25029"
         y="137.62947"
         style="font-style:normal;font-variant:normal;font-weight:normal;font-stretch:normal;font-family:Anandaround;-inkscape-font-specification:Anandaround;stroke-width:0.0587882" /></text>
    <text
       xml:space="preserve"
       style="font-style:normal;font-variant:normal;font-weight:normal;font-stretch:normal;font-size:42.66078949px;line-height:1.25;font-family:Anandaround;-inkscape-font-specification:Anandaround;letter-spacing:0px;word-spacing:0px;fill:#000000;fill-opacity:1;stroke:none;stroke-width:0.0587882"
       x="483.79941"
       y="-104.57238"
       id="text114"><tspan
         sodipodi:role="line"
         id="tspan112"
         x="483.79941"
         y="-65.651649"
         style="font-style:normal;font-variant:normal;font-weight:normal;font-stretch:normal;font-family:Anandaround;-inkscape-font-specification:Anandaround;stroke-width:0.0587882" /></text>
    <text
       xml:space="preserve"
       style="font-style:normal;font-variant:normal;font-weight:normal;font-stretch:normal;font-size:42.66078949px;line-height:1.25;font-family:'Comic Sans MS';-inkscape-font-specification:'Comic Sans MS';letter-spacing:0px;word-spacing:0px;fill:#000000;fill-opacity:1;stroke:none;stroke-width:0.0587882"
       x="729.29077"
       y="28.01564"
       id="text118"><tspan
         sodipodi:role="line"
         id="tspan116"
         x="729.29077"
         y="65.082283"
         style="font-style:normal;font-variant:normal;font-weight:normal;font-stretch:normal;font-family:'Comic Sans MS';-inkscape-font-specification:'Comic Sans MS';stroke-width:0.0587882" /></text>
  </g>
  <g
     aria-label="Wave your hands, Fill the heart"
     transform="matrix(1.0324554,0,0,0.96856479,0,-80)"
     style="font-style:normal;font-variant:normal;font-weight:normal;font-stretch:normal;font-size:76.14997864px;line-height:1.25;font-family:'Script MT Bold';-inkscape-font-specification:'Script MT Bold, ';text-align:center;letter-spacing:0px;word-spacing:0px;text-anchor:middle;fill:#ffffff;fill-opacity:1;stroke:none;stroke-width:1.90374959"
     id="text865">
    <path
       d="m 53.354927,809.27411 q -6.692869,12.56772 -14.575582,12.56772 -4.127269,0 -6.618504,-3.01179 -2.491234,-3.04897 -2.491234,-8.03144 0,-5.80049 4.127269,-17.62456 4.164452,-11.82407 4.164452,-16.73217 0,-2.19377 -1.264209,-3.6439 -1.227026,-1.45012 -3.086156,-1.45012 -2.863061,0 -5.688939,3.49517 -2.825878,3.49516 -2.825878,7.13906 0,2.78869 2.528417,5.80049 1.041113,1.2642 1.041113,1.74758 0,0.55774 -1.598852,2.49123 -1.598852,1.9335 -2.751513,1.9335 -1.227026,0 -2.788695,-1.78477 -1.56167,-1.78476 -1.56167,-5.31711 0,-7.17624 5.019652,-13.05109 5.056835,-5.87486 11.154782,-5.87486 4.573461,0 7.733982,3.79263 3.160522,3.79263 3.160522,9.44438 0,5.94922 -3.829808,16.84372 -3.792626,10.85732 -3.792626,14.5384 0,1.74758 0.892382,2.7887 0.892383,1.00393 2.379687,1.00393 3.234887,0 6.432591,-5.27993 3.197704,-5.27993 5.837669,-15.13332 l 3.495165,-13.08828 q 2.045044,-7.73398 4.573461,-13.49729 0.260278,-0.6321 3.457982,-0.96675 3.234887,-0.37182 4.685009,-0.37182 1.450121,0 1.450121,0.59492 L 65.8111,794.5498 q -2.937426,11.41506 -2.937426,16.69499 0,2.30532 0.966748,3.68108 0.966748,1.33857 2.602783,1.33857 2.416869,0 6.581321,-3.94135 4.201635,-3.97854 7.064695,-10.11367 2.863061,-6.17232 2.863061,-12.60491 0,-6.87878 -3.346434,-13.6832 -0.929566,-1.97067 -0.929566,-2.45405 0,-1.59885 3.048974,-3.53235 3.086156,-1.93349 4.42473,-1.93349 1.264209,0 2.528418,3.38362 1.301391,3.34643 1.301391,7.02751 0,9.77902 -4.573461,20.04142 -4.57346,10.22522 -11.377877,16.80654 -6.804418,6.58132 -12.307443,6.58132 -3.904174,0 -6.209496,-3.12334 -2.268139,-3.16052 -2.156591,-9.44438 z"
       style="fill:#ffffff;stroke-width:1.90374959"
       id="path880"
       inkscape:connector-curvature="0" />
    <path
       d="m 129.69082,812.76928 q -5.94922,5.65175 -8.51482,7.36215 -2.5656,1.7104 -4.9081,1.7104 -5.87485,0 -5.54021,-10.37394 -3.71826,5.31711 -6.87878,7.84553 -3.12334,2.52841 -6.469775,2.52841 -3.272069,0 -5.577391,-3.04897 -2.268139,-3.08616 -2.268139,-7.54807 0,-5.57739 3.048974,-10.63423 3.086156,-5.05683 7.882711,-8.18017 4.79656,-3.12334 8.47764,-3.12334 4.64782,0 6.50695,4.276 l 7.58525,-4.20163 h 2.08223 l -3.27207,10.8945 q -2.52842,8.21736 -2.52842,11.26633 0,3.19771 2.26814,3.19771 1.45012,0 3.19771,-1.52449 1.74758,-1.56167 4.9081,-4.72219 z m -27.21767,2.04504 q 3.71826,0 6.99033,-6.32104 3.30925,-6.35823 3.30925,-11.71252 0,-2.08223 -0.92956,-3.23489 -0.92957,-1.18984 -2.49124,-1.18984 -3.71826,0 -7.06469,6.32104 -3.309253,6.32104 -3.309253,11.63816 0,2.00786 0.966748,3.27206 1.003935,1.22703 2.528415,1.22703 z"
       style="fill:#ffffff;stroke-width:1.90374959"
       id="path882"
       inkscape:connector-curvature="0" />
    <path
       d="m 163.08081,812.76928 q -1.7104,1.4873 -3.45799,2.11941 -1.74758,0.6321 -2.71433,0.6321 -2.71433,0 -5.35429,-2.08223 -6.61851,8.40327 -14.01784,8.40327 -3.867,0 -6.06077,-2.63996 -2.15659,-2.67715 -2.15659,-7.43652 0,-5.24275 2.60278,-12.86519 l 2.60278,-7.62243 10.11367,-1.89631 -4.49909,13.42292 q -0.70647,2.19377 -1.33858,5.20556 -0.6321,3.01179 -0.6321,4.31319 0,2.00786 1.04111,3.38361 1.0783,1.33858 2.60279,1.33858 3.56953,0 7.6968,-6.09795 -1.89632,-3.79263 -1.89632,-7.62243 0,-5.31712 2.7887,-9.59312 2.82588,-4.276 6.17231,-4.276 2.52842,0 2.52842,3.90418 0,7.54807 -6.09795,17.43864 1.89631,1.74758 3.97854,1.74758 2.52842,0 6.09795,-4.0529 z"
       style="fill:#ffffff;stroke-width:1.90374959"
       id="path884"
       inkscape:connector-curvature="0" />
    <path
       d="m 190.81903,812.76928 q -4.72219,4.64782 -8.47764,6.87878 -3.75544,2.19377 -8.29172,2.19377 -5.05683,0 -8.18017,-3.23488 -3.08616,-3.23489 -3.08616,-8.51482 0,-7.88271 5.46585,-14.24094 5.46584,-6.39541 12.12153,-6.39541 3.45798,0 5.5402,1.78477 2.08223,1.78476 2.08223,4.68501 0,7.6968 -16.36035,12.49335 1.48731,7.25061 7.77117,7.25061 2.45405,0 4.68501,-1.30139 2.23095,-1.33857 6.73005,-5.87485 z m -19.48369,-6.87879 q 9.51875,-2.67714 9.51875,-9.89057 0,-3.56953 -2.60278,-3.56953 -2.45405,0 -4.68501,3.75544 -2.23096,3.71827 -2.23096,9.70466 z"
       style="fill:#ffffff;stroke-width:1.90374959"
       id="path886"
       inkscape:connector-curvature="0" />
    <path
       d="m 249.56754,812.76928 q -4.72219,4.57346 -15.09613,9.37001 -3.45799,9.81621 -7.77117,13.86912 -4.31318,4.09008 -8.99819,4.09008 -2.37969,0 -3.82981,-1.45012 -1.41294,-1.45012 -1.41294,-3.86699 0,-7.32497 13.42292,-13.27419 l 2.26814,-7.99426 q -7.02751,7.84553 -12.34462,7.84553 -2.86306,0 -4.64783,-2.3425 -1.74758,-2.34251 -1.74758,-6.24668 0,-5.61458 2.45405,-12.04717 l 3.56953,-9.44438 10.82014,-1.89631 -4.64783,11.04323 q -3.1977,7.99426 -3.1977,12.04717 0,3.34643 2.26814,3.34643 2.30532,0 5.24275,-3.71826 2.97461,-3.71826 4.98247,-9.14692 l 4.23881,-11.67534 10.15086,-1.89631 -9.66748,29.0768 q 8.51481,-3.90418 13.94347,-9.96494 z m -24.76361,12.41899 q -4.57346,2.04504 -7.0647,4.57346 -2.45405,2.5656 -2.45405,5.01965 0,2.49124 2.11941,2.49124 4.12727,0 7.39934,-12.08435 z"
       style="fill:#ffffff;stroke-width:1.90374959"
       id="path888"
       inkscape:connector-curvature="0" />
    <path
       d="m 282.95753,812.76928 q -1.89631,1.67321 -3.68108,2.37968 -1.78476,0.66929 -2.82588,0.66929 -2.67714,0 -5.31711,-2.08223 -5.35429,8.10581 -12.27026,8.10581 -4.31318,0 -6.99033,-3.23488 -2.67715,-3.23489 -2.67715,-8.58919 0,-8.47763 6.02359,-14.53839 6.02358,-6.09795 14.38966,-6.09795 3.16053,0 4.61065,0.70647 1.4873,0.66928 1.82195,1.59885 0.33464,0.92956 0.33464,2.3425 0,6.95315 -3.79263,17.06682 1.89632,1.74758 3.97854,1.74758 2.49124,0 6.39541,-4.35036 z M 270.68727,791.9842 q -0.55774,-0.2231 -1.59885,-0.2231 -4.83374,0 -7.58525,5.05684 -2.71433,5.05683 -2.71433,11.82407 0,3.75544 1.18984,5.83767 1.18984,2.08222 3.30925,2.08222 2.63997,0 5.72612,-4.87092 -3.49516,-4.38755 -3.49516,-9.44438 0,-5.94922 5.16838,-10.2624 z"
       style="fill:#ffffff;stroke-width:1.90374959"
       id="path890"
       inkscape:connector-curvature="0" />
    <path
       d="m 322.5942,812.76928 q -4.9081,4.64782 -8.21735,6.87878 -3.30926,2.19377 -5.94922,2.19377 -2.93743,0 -4.53628,-2.3425 -1.56167,-2.34251 -1.56167,-6.35823 -4.09009,4.4991 -7.32497,6.65569 -3.23489,2.11941 -6.32105,2.11941 -2.82587,0 -4.53627,-2.34251 -1.7104,-2.3425 -1.7104,-6.35822 0,-7.73398 5.20556,-21.78901 l 9.89057,-1.97068 q -6.09794,17.81047 -6.09794,22.86731 0,3.56953 2.67715,3.56953 1.93349,0 4.79655,-3.12334 2.86306,-3.16052 3.56953,-5.50303 l 4.87092,-15.83979 10.11367,-2.04504 q -3.49516,11.19196 -4.79655,15.72824 -1.3014,4.53628 -1.3014,6.35823 0,3.49516 2.37969,3.49516 1.9335,0 5.72612,-3.53235 l 3.12334,-2.93742 z"
       style="fill:#ffffff;stroke-width:1.90374959"
       id="path892"
       inkscape:connector-curvature="0" />
    <path
       d="m 350.40677,812.76928 q -9.33284,9.14692 -14.38967,9.14692 -2.26814,0 -3.82981,-1.89631 -1.56167,-1.9335 -1.56167,-4.75938 0,-5.24275 5.61457,-14.05502 -2.75151,1.41294 -6.02358,1.97067 -2.41687,4.46192 -7.58525,9.59312 h -0.8552 v -3.34644 q 2.90024,-3.01179 5.24275,-6.46977 -3.19771,-1.41294 -3.19771,-4.20164 0,-2.86306 1.9335,-6.09794 1.97068,-3.27207 5.39148,-3.27207 2.90024,0 2.90024,2.97461 0,2.3425 -1.67322,6.69287 6.17231,-0.66929 10.78296,-9.44439 l 3.38362,-0.14873 -3.45799,9.51875 q -2.15659,6.02358 -2.78869,8.21736 -0.63211,2.15659 -0.63211,3.8298 0,1.56167 0.70647,2.49124 0.74365,0.92956 1.97068,0.92956 1.33857,0 2.5656,-0.89238 1.22703,-0.92956 5.50303,-5.05683 z"
       style="fill:#ffffff;stroke-width:1.90374959"
       id="path894"
       inkscape:connector-curvature="0" />
    <path
       d="m 405.95759,812.76928 q -8.81227,9.14692 -14.50121,9.14692 -2.52842,0 -4.20164,-1.7104 -1.63603,-1.74758 -1.63603,-4.38755 0,-4.46191 3.4208,-12.56772 1.82195,-4.38755 1.82195,-5.72612 0,-1.52449 -1.45013,-1.52449 -1.4873,0 -4.31318,2.04504 -2.82588,2.00787 -5.94922,5.50303 -1.30139,6.8416 -1.30139,16.43471 l -8.29172,1.9335 q -0.48337,-3.90418 -0.48337,-8.47764 0,-11.08041 3.04897,-20.63634 3.04898,-9.55593 9.59311,-20.26452 4.87093,-1.97068 8.47764,-3.19771 3.64389,-1.26421 4.16445,-1.26421 0.96675,0 1.63604,1.56167 0.66928,1.56167 0.66928,3.90418 0,3.94135 -2.41687,8.73791 -2.41687,4.75937 -7.58525,11.52661 4.94529,-2.86306 6.58132,-3.60672 1.63604,-0.74365 3.34644,-0.74365 1.89631,0 3.04897,1.37576 1.18984,1.33857 1.18984,3.56953 0,3.34643 -2.67714,10.37395 -2.63997,7.02751 -2.63997,8.81227 0,0.81802 0.48338,1.45013 0.52055,0.6321 1.18984,0.6321 2.37969,0 8.77509,-7.17624 z m -25.76754,-15.24487 q 13.27419,-15.43078 13.27419,-22.75576 0,-2.23095 -1.22703,-2.23095 -2.04504,0 -5.83767,7.32497 -3.79262,7.32497 -6.20949,17.66174 z"
       style="fill:#ffffff;stroke-width:1.90374959"
       id="path896"
       inkscape:connector-curvature="0" />
    <path
       d="m 445.59426,812.76928 q -5.94921,5.65175 -8.51481,7.36215 -2.5656,1.7104 -4.90811,1.7104 -5.87485,0 -5.54021,-10.37394 -3.71826,5.31711 -6.87878,7.84553 -3.12334,2.52841 -6.46977,2.52841 -3.27207,0 -5.57739,-3.04897 -2.26814,-3.08616 -2.26814,-7.54807 0,-5.57739 3.04897,-10.63423 3.08616,-5.05683 7.88271,-8.18017 4.79656,-3.12334 8.47764,-3.12334 4.64782,0 6.50695,4.276 l 7.58526,-4.20163 h 2.08222 l -3.27207,10.8945 q -2.52841,8.21736 -2.52841,11.26633 0,3.19771 2.26813,3.19771 1.45013,0 3.19771,-1.52449 1.74758,-1.56167 4.9081,-4.72219 z m -27.21767,2.04504 q 3.71827,0 6.99033,-6.32104 3.30926,-6.35823 3.30926,-11.71252 0,-2.08223 -0.92957,-3.23489 -0.92956,-1.18984 -2.49123,-1.18984 -3.71826,0 -7.0647,6.32104 -3.30925,6.32104 -3.30925,11.63816 0,2.00786 0.96675,3.27206 1.00393,1.22703 2.52841,1.22703 z"
       style="fill:#ffffff;stroke-width:1.90374959"
       id="path898"
       inkscape:connector-curvature="0" />
    <path
       d="m 482.10759,812.76928 q -8.58918,9.07255 -14.72431,9.07255 -2.49124,0 -4.01573,-1.74758 -1.52448,-1.74758 -1.52448,-4.68501 0,-3.97854 3.27207,-12.15871 1.74758,-4.38755 1.74758,-5.57739 0,-1.18984 -0.92957,-1.18984 -0.52055,0 -1.37575,0.52055 -0.78084,0.52056 -1.82195,1.45012 -0.92957,0.8552 -2.08223,2.08223 -1.00393,1.04111 -2.15659,2.37969 l -2.08222,2.41687 q -1.37576,1.67321 -1.7104,3.53234 -0.55774,3.16053 -0.74366,5.80049 -0.11154,1.97068 -0.11154,5.31711 l -8.21736,1.9335 q -0.40901,-5.01965 -0.40901,-7.47371 0,-5.9864 1.37576,-11.34069 1.41294,-5.3543 4.49909,-12.04717 l 9.07256,-1.74758 q -2.86306,7.6968 -3.75544,12.12153 6.09794,-6.80441 9.66747,-9.4072 3.60672,-2.63996 6.39541,-2.63996 1.89632,0 3.16052,1.45012 1.26421,1.41294 1.26421,3.56953 0,3.56953 -3.1977,11.7497 -2.19378,5.61458 -2.19378,7.28779 0,2.23096 1.82195,2.23096 2.71433,0 8.7751,-7.17624 z"
       style="fill:#ffffff;stroke-width:1.90374959"
       id="path900"
       inkscape:connector-curvature="0" />
    <path
       d="m 521.74423,812.76928 q -5.3543,5.31711 -8.18018,7.21342 -2.78869,1.85913 -4.94528,1.85913 -2.63997,0 -4.20164,-2.5656 -1.52449,-2.5656 -1.56167,-7.51088 -3.04897,4.94528 -6.65568,7.51088 -3.56953,2.5656 -6.46978,2.5656 -3.16052,0 -5.57739,-2.97461 -2.41687,-3.01179 -2.41687,-7.02751 0,-8.29172 6.02358,-15.35641 6.06077,-7.10188 13.01392,-7.10188 1.93349,0 3.01179,0.55774 1.11548,0.55774 2.41687,1.89631 l 5.31711,-22.2352 q 6.50696,-1.52449 8.77509,-1.52449 0.74366,0 0.74366,0.59493 0,0.409 -1.85913,7.6968 -7.43652,29.15116 -7.43652,35.17474 0,1.41294 0.59492,2.26814 0.59492,0.8552 1.56167,0.8552 2.37968,0 7.84553,-6.17231 z m -26.88303,1.97068 q 3.6439,0 6.80442,-6.17232 3.16052,-6.17231 3.16052,-11.56379 0,-2.19377 -1.00393,-3.49516 -0.96675,-1.30139 -2.5656,-1.30139 -3.45798,0 -6.69287,6.46977 -3.23489,6.43259 -3.23489,11.63816 0,2.04504 0.92957,3.23488 0.96675,1.18985 2.60278,1.18985 z"
       style="fill:#ffffff;stroke-width:1.90374959"
       id="path902"
       inkscape:connector-curvature="0" />
    <path
       d="m 533.19647,790.98027 q 2.5656,-0.66929 5.16839,-1.0783 2.60278,-0.44619 3.12334,-0.44619 0.37182,0 0.37182,0.29746 0,0.55774 -0.29746,1.15266 -0.59492,1.7104 -0.59492,3.27207 0,1.9335 2.23096,5.27993 2.23095,3.34644 2.23095,6.2095 0,5.68894 -5.46584,10.96887 -5.42866,5.27993 -11.26633,5.27993 -2.52842,0 -4.61064,-1.33858 -2.08223,-1.33857 -2.08223,-2.86306 0,-0.89238 2.04504,-3.38361 2.08223,-2.49124 2.97461,-2.49124 1.18984,0 2.11941,3.04898 0.92957,3.04897 3.1977,3.04897 2.26814,0 4.23882,-2.08223 2.00786,-2.11941 2.00786,-4.53627 0,-2.34251 -2.52842,-6.24668 -2.52841,-3.90418 -3.34643,-6.54414 -4.31318,6.95315 -10.93169,14.24094 h -0.8552 v -3.34644 q 9.10974,-9.70466 12.27026,-18.44257 z"
       style="fill:#ffffff;stroke-width:1.90374959"
       id="path904"
       inkscape:connector-curvature="0" />
    <path
       d="m 553.90719,810.16649 q 3.12334,1.89632 4.57346,3.94136 1.45012,2.00786 1.45012,4.83374 0,4.57346 -3.71826,8.40327 -3.71826,3.82981 -10.8945,6.43259 l -0.78083,-2.26814 q 4.12726,-2.23096 6.24667,-4.12727 2.11941,-1.85913 2.11941,-4.42473 0,-3.23489 -3.71826,-4.72219 -1.30139,-0.44619 -1.30139,-0.89238 0,-0.37183 1.56167,-1.78477 1.56167,-1.41294 4.46191,-5.39148 z"
       style="fill:#ffffff;stroke-width:1.90374959"
       id="path906"
       inkscape:connector-curvature="0" />
    <path
       d="m 626.33891,767.29495 q -0.89238,5.01965 -2.7887,7.28779 -1.89631,2.23096 -7.17624,2.23096 L 604.773,776.51624 q -5.1312,0 -8.32891,2.00786 -3.16052,1.97067 -3.16052,5.5402 0,3.34644 4.05291,5.24275 1.37575,0.63211 1.37575,1.15266 0,1.04112 -1.52449,2.60279 -1.4873,1.52448 -3.45798,2.26813 -5.01965,-1.37575 -5.01965,-6.46977 0,-3.56953 2.82588,-8.92382 2.82588,-5.39148 7.58525,-8.7751 4.75937,-3.4208 10.55986,-3.4208 0.48337,0 5.27993,0.40901 4.83374,0.37183 5.83767,0.37183 3.01179,0 3.6439,-1.22703 z m -1.59885,22.68139 -0.66929,6.50696 q -0.59492,0.81801 -2.45405,1.59885 -1.85913,0.74365 -6.54414,1.97068 -0.89238,9.74184 -6.50696,15.72824 -5.61457,5.94922 -14.12939,5.94922 -5.9864,0 -9.33283,-2.60279 -3.30925,-2.60278 -3.30925,-5.1312 0,-1.18984 2.5656,-3.49516 2.60278,-2.30532 3.8298,-2.30532 0.92957,0 1.15266,0.70647 0.2231,0.66928 0.2231,3.45798 0.0372,2.75151 1.41294,4.64782 1.41294,1.85913 3.90417,1.85913 7.51089,0 9.59312,-15.54232 -3.4208,0.74365 -7.77117,3.1977 l 1.59885,-5.01965 q 3.16052,-2.71433 6.73005,-3.97854 0.55774,-5.9864 2.00787,-9.51875 1.4873,-3.53235 4.83373,-6.91596 4.42473,-0.55774 6.02359,-0.63211 -1.26421,2.45405 -1.74759,4.75938 -0.48337,2.30532 -0.6321,8.44045 4.87092,-1.59885 9.22129,-3.68108 z"
       style="fill:#ffffff;stroke-width:1.90374959"
       id="path908"
       inkscape:connector-curvature="0" />
    <path
       d="m 644.59557,774.91738 q 0,8.92383 -6.58132,8.92383 -3.19771,0 -5.46585,-1.9335 2.1566,-3.27207 3.34644,-7.36215 2.93743,1.82195 4.72219,1.82195 2.00786,0 3.97854,-1.45013 z m 0.74365,37.8519 q -8.70073,9.14692 -13.01391,9.14692 -2.37969,0 -4.01572,-2.41687 -1.63604,-2.45405 -1.63604,-6.13513 0,-7.9199 5.3543,-21.93774 l 9.44438,-1.97068 h 0.44619 l -3.71826,11.63816 q -2.30532,7.21342 -2.30532,10.29958 0,1.22703 0.52056,2.00786 0.55773,0.74365 1.37575,0.74365 1.45012,0 2.90025,-1.04111 1.4873,-1.07829 4.64782,-4.61064 z"
       style="fill:#ffffff;stroke-width:1.90374959"
       id="path910"
       inkscape:connector-curvature="0" />
    <path
       d="m 669.95409,812.76928 q -5.05684,4.64782 -8.88665,6.87878 -3.79262,2.19377 -7.2506,2.19377 -3.97854,0 -6.43259,-3.08615 -2.41687,-3.08616 -2.41687,-8.29172 0,-7.80835 3.38361,-18.74004 3.38362,-10.93168 8.21736,-20.15297 l 9.44438,-3.49517 q 0.44619,-0.14873 0.66929,-0.14873 1.07829,0 1.74758,1.59886 0.70647,1.56167 0.70647,4.23881 0,7.58525 -3.49516,14.68713 -3.49517,7.10188 -10.93169,15.17051 -0.29746,3.86699 -0.29746,5.31711 0,3.23489 1.18984,5.1312 1.18984,1.89631 3.16052,1.89631 2.00786,0 4.276,-1.45012 2.26814,-1.45012 6.91597,-6.02358 z m -14.24094,-14.5384 q 4.72219,-5.24275 7.65962,-11.74971 2.93742,-6.50695 2.93742,-11.19196 0,-1.37576 -0.40901,-2.19377 -0.40901,-0.8552 -1.04111,-0.8552 -1.37576,0 -4.01572,6.8416 -2.60278,6.8416 -5.1312,19.14904 z"
       style="fill:#ffffff;stroke-width:1.90374959"
       id="path912"
       inkscape:connector-curvature="0" />
    <path
       d="m 694.64336,812.76928 q -5.05684,4.64782 -8.88665,6.87878 -3.79262,2.19377 -7.2506,2.19377 -3.97854,0 -6.43259,-3.08615 -2.41687,-3.08616 -2.41687,-8.29172 0,-7.80835 3.38361,-18.74004 3.38362,-10.93168 8.21736,-20.15297 l 9.44438,-3.49517 q 0.44619,-0.14873 0.66929,-0.14873 1.07829,0 1.74758,1.59886 0.70647,1.56167 0.70647,4.23881 0,7.58525 -3.49516,14.68713 -3.49517,7.10188 -10.93169,15.17051 -0.29746,3.86699 -0.29746,5.31711 0,3.23489 1.18984,5.1312 1.18984,1.89631 3.16052,1.89631 2.00786,0 4.276,-1.45012 2.26814,-1.45012 6.91597,-6.02358 z m -14.24094,-14.5384 q 4.72219,-5.24275 7.65962,-11.74971 2.93742,-6.50695 2.93742,-11.19196 0,-1.37576 -0.40901,-2.19377 -0.40901,-0.8552 -1.04111,-0.8552 -1.37576,0 -4.01572,6.8416 -2.60278,6.8416 -5.1312,19.14904 z"
       style="fill:#ffffff;stroke-width:1.90374959"
       id="path914"
       inkscape:connector-curvature="0" />
    <path
       d="m 735.1724,812.76928 q -4.68501,4.64782 -8.10581,6.87878 -3.4208,2.19377 -6.50696,2.19377 -3.1977,0 -5.20556,-2.67714 -1.97068,-2.71433 -1.97068,-7.10188 0,-3.86699 1.85913,-10.22522 l 1.63604,-5.61457 -2.86306,0.14873 1.18984,-5.83767 3.53235,-0.14873 3.49516,-11.60098 9.96494,-2.04504 -3.79263,12.93955 5.16839,-0.29746 -1.22703,5.72612 -5.7633,0.44619 -2.49124,8.3289 q -1.26421,4.35037 -1.26421,6.91597 0,1.74758 0.8552,2.86306 0.89239,1.0783 2.26814,1.0783 1.89632,0 3.75545,-1.18985 1.85913,-1.22702 5.46584,-5.05683 z"
       style="fill:#ffffff;stroke-width:1.90374959"
       id="path916"
       inkscape:connector-curvature="0" />
    <path
       d="m 771.68571,812.76928 q -8.81227,9.14692 -14.50121,9.14692 -2.52842,0 -4.20164,-1.7104 -1.63603,-1.74758 -1.63603,-4.38755 0,-4.46191 3.4208,-12.56772 1.82194,-4.38755 1.82194,-5.72612 0,-1.52449 -1.45012,-1.52449 -1.4873,0 -4.31318,2.04504 -2.82588,2.00787 -5.94922,5.50303 -1.30139,6.8416 -1.30139,16.43471 l -8.29172,1.9335 q -0.48337,-3.90418 -0.48337,-8.47764 0,-11.08041 3.04897,-20.63634 3.04897,-9.55593 9.59311,-20.26452 4.87092,-1.97068 8.47764,-3.19771 3.64389,-1.26421 4.16445,-1.26421 0.96675,0 1.63603,1.56167 0.66929,1.56167 0.66929,3.90418 0,3.94135 -2.41687,8.73791 -2.41687,4.75937 -7.58525,11.52661 4.94529,-2.86306 6.58132,-3.60672 1.63604,-0.74365 3.34644,-0.74365 1.89631,0 3.04897,1.37576 1.18984,1.33857 1.18984,3.56953 0,3.34643 -2.67714,10.37395 -2.63997,7.02751 -2.63997,8.81227 0,0.81802 0.48337,1.45013 0.52056,0.6321 1.18985,0.6321 2.37968,0 8.77509,-7.17624 z m -25.76754,-15.24487 q 13.27419,-15.43078 13.27419,-22.75576 0,-2.23095 -1.22703,-2.23095 -2.04504,0 -5.83767,7.32497 -3.79262,7.32497 -6.20949,17.66174 z"
       style="fill:#ffffff;stroke-width:1.90374959"
       id="path918"
       inkscape:connector-curvature="0" />
    <path
       d="m 799.42395,812.76928 q -4.72219,4.64782 -8.47764,6.87878 -3.75544,2.19377 -8.29172,2.19377 -5.05683,0 -8.18017,-3.23488 -3.08616,-3.23489 -3.08616,-8.51482 0,-7.88271 5.46585,-14.24094 5.46584,-6.39541 12.12153,-6.39541 3.45798,0 5.5402,1.78477 2.08223,1.78476 2.08223,4.68501 0,7.6968 -16.36035,12.49335 1.48731,7.25061 7.77117,7.25061 2.45405,0 4.68501,-1.30139 2.23095,-1.33857 6.73005,-5.87485 z m -19.48369,-6.87879 q 9.51875,-2.67714 9.51875,-9.89057 0,-3.56953 -2.60278,-3.56953 -2.45406,0 -4.68501,3.75544 -2.23096,3.71827 -2.23096,9.70466 z"
       style="fill:#ffffff;stroke-width:1.90374959"
       id="path920"
       inkscape:connector-curvature="0" />
    <path
       d="m 854.97478,812.76928 q -8.81228,9.14692 -14.50122,9.14692 -2.52842,0 -4.20164,-1.7104 -1.63603,-1.74758 -1.63603,-4.38755 0,-4.46191 3.4208,-12.56772 1.82195,-4.38755 1.82195,-5.72612 0,-1.52449 -1.45012,-1.52449 -1.48731,0 -4.31319,2.04504 -2.82588,2.00787 -5.94921,5.50303 -1.3014,6.8416 -1.3014,16.43471 l -8.29172,1.9335 q -0.48337,-3.90418 -0.48337,-8.47764 0,-11.08041 3.04897,-20.63634 3.04898,-9.55593 9.59312,-20.26452 4.87092,-1.97068 8.47763,-3.19771 3.6439,-1.26421 4.16445,-1.26421 0.96675,0 1.63604,1.56167 0.66928,1.56167 0.66928,3.90418 0,3.94135 -2.41687,8.73791 -2.41687,4.75937 -7.58525,11.52661 4.94529,-2.86306 6.58132,-3.60672 1.63604,-0.74365 3.34644,-0.74365 1.89631,0 3.04897,1.37576 1.18985,1.33857 1.18985,3.56953 0,3.34643 -2.67715,10.37395 -2.63997,7.02751 -2.63997,8.81227 0,0.81802 0.48338,1.45013 0.52055,0.6321 1.18984,0.6321 2.37969,0 8.7751,-7.17624 z m -25.76755,-15.24487 q 13.27419,-15.43078 13.27419,-22.75576 0,-2.23095 -1.22703,-2.23095 -2.04504,0 -5.83767,7.32497 -3.79262,7.32497 -6.20949,17.66174 z"
       style="fill:#ffffff;stroke-width:1.90374959"
       id="path922"
       inkscape:connector-curvature="0" />
    <path
       d="m 882.71295,812.76928 q -4.72219,4.64782 -8.47764,6.87878 -3.75544,2.19377 -8.29172,2.19377 -5.05683,0 -8.18017,-3.23488 -3.08616,-3.23489 -3.08616,-8.51482 0,-7.88271 5.46585,-14.24094 5.46584,-6.39541 12.12153,-6.39541 3.45798,0 5.54021,1.78477 2.08222,1.78476 2.08222,4.68501 0,7.6968 -16.36035,12.49335 1.48731,7.25061 7.77117,7.25061 2.45405,0 4.68501,-1.30139 2.23095,-1.33857 6.73005,-5.87485 z m -19.48369,-6.87879 q 9.51875,-2.67714 9.51875,-9.89057 0,-3.56953 -2.60278,-3.56953 -2.45405,0 -4.68501,3.75544 -2.23096,3.71827 -2.23096,9.70466 z"
       style="fill:#ffffff;stroke-width:1.90374959"
       id="path924"
       inkscape:connector-curvature="0" />
    <path
       d="m 922.42401,812.76928 q -5.94922,5.65175 -8.51482,7.36215 -2.5656,1.7104 -4.90811,1.7104 -5.87485,0 -5.5402,-10.37394 -3.71826,5.31711 -6.87879,7.84553 -3.12334,2.52841 -6.46977,2.52841 -3.27207,0 -5.57739,-3.04897 -2.26814,-3.08616 -2.26814,-7.54807 0,-5.57739 3.04897,-10.63423 3.08616,-5.05683 7.88272,-8.18017 4.79655,-3.12334 8.47763,-3.12334 4.64783,0 6.50696,4.276 l 7.58525,-4.20163 h 2.08222 l -3.27206,10.8945 q -2.52842,8.21736 -2.52842,11.26633 0,3.19771 2.26814,3.19771 1.45012,0 3.1977,-1.52449 1.74758,-1.56167 4.90811,-4.72219 z m -27.21767,2.04504 q 3.71826,0 6.99033,-6.32104 3.30925,-6.35823 3.30925,-11.71252 0,-2.08223 -0.92957,-3.23489 -0.92956,-1.18984 -2.49123,-1.18984 -3.71826,0 -7.0647,6.32104 -3.30925,6.32104 -3.30925,11.63816 0,2.00786 0.96675,3.27206 1.00393,1.22703 2.52842,1.22703 z"
       style="fill:#ffffff;stroke-width:1.90374959"
       id="path926"
       inkscape:connector-curvature="0" />
    <path
       d="m 950.23657,812.76928 q -9.33283,9.14692 -14.38967,9.14692 -2.26814,0 -3.82981,-1.89631 -1.56167,-1.9335 -1.56167,-4.75938 0,-5.24275 5.61458,-14.05502 -2.75152,1.41294 -6.02359,1.97067 -2.41687,4.46192 -7.58525,9.59312 h -0.8552 v -3.34644 q 2.90025,-3.01179 5.24275,-6.46977 -3.1977,-1.41294 -3.1977,-4.20164 0,-2.86306 1.93349,-6.09794 1.97068,-3.27207 5.39148,-3.27207 2.90024,0 2.90024,2.97461 0,2.3425 -1.67321,6.69287 6.17231,-0.66929 10.78295,-9.44439 l 3.38362,-0.14873 -3.45798,9.51875 q -2.15659,6.02358 -2.7887,8.21736 -0.6321,2.15659 -0.6321,3.8298 0,1.56167 0.70647,2.49124 0.74365,0.92956 1.97067,0.92956 1.33858,0 2.5656,-0.89238 1.22703,-0.92956 5.50303,-5.05683 z"
       style="fill:#ffffff;stroke-width:1.90374959"
       id="path928"
       inkscape:connector-curvature="0" />
    <path
       d="m 971.65378,812.76928 q -4.685,4.64782 -8.1058,6.87878 -3.4208,2.19377 -6.50696,2.19377 -3.19771,0 -5.20557,-2.67714 -1.97067,-2.71433 -1.97067,-7.10188 0,-3.86699 1.85913,-10.22522 l 1.63603,-5.61457 -2.86306,0.14873 1.18984,-5.83767 3.53235,-0.14873 3.49517,-11.60098 9.96493,-2.04504 -3.79262,12.93955 5.16838,-0.29746 -1.22702,5.72612 -5.76331,0.44619 -2.49123,8.3289 q -1.26421,4.35037 -1.26421,6.91597 0,1.74758 0.8552,2.86306 0.89238,1.0783 2.26814,1.0783 1.89631,0 3.75544,-1.18985 1.85913,-1.22702 5.46584,-5.05683 z"
       style="fill:#ffffff;stroke-width:1.90374959"
       id="path930"
       inkscape:connector-curvature="0" />
  </g>
</svg>
