<?xml version="1.0" encoding="UTF-8" standalone="no"?>
<!-- Created with Inkscape (http://www.inkscape.org/) -->

<svg
   xmlns:dc="http://purl.org/dc/elements/1.1/"
   xmlns:cc="http://creativecommons.org/ns#"
   xmlns:rdf="http://www.w3.org/1999/02/22-rdf-syntax-ns#"
   xmlns:svg="http://www.w3.org/2000/svg"
   xmlns="http://www.w3.org/2000/svg"
   xmlns:sodipodi="http://sodipodi.sourceforge.net/DTD/sodipodi-0.dtd"
   xmlns:inkscape="http://www.inkscape.org/namespaces/inkscape"
   version="1.0"
   width="1024"
   height="768"
   id="svg2"
   sodipodi:docname="yoy.svg"
   inkscape:version="0.92.2 (5c3e80d, 2017-08-06)">
  <metadata
     id="metadata3715">
    <rdf:RDF>
      <cc:Work
         rdf:about="">
        <dc:format>image/svg+xml</dc:format>
        <dc:type
           rdf:resource="http://purl.org/dc/dcmitype/StillImage" />
        <dc:title></dc:title>
      </cc:Work>
    </rdf:RDF>
  </metadata>
  <sodipodi:namedview
     pagecolor="#ffffff"
     bordercolor="#666666"
     borderopacity="1"
     objecttolerance="10"
     gridtolerance="10"
     guidetolerance="10"
     inkscape:pageopacity="0"
     inkscape:pageshadow="2"
     inkscape:window-width="1920"
     inkscape:window-height="1046"
     id="namedview3713"
     showgrid="false"
     inkscape:zoom="2.3997418"
     inkscape:cx="120.65825"
     inkscape:cy="77.852613"
     inkscape:window-x="-11"
     inkscape:window-y="-11"
     inkscape:window-maximized="1"
     inkscape:current-layer="svg2"
     showguides="true"
     inkscape:guide-bbox="true">
    <sodipodi:guide
       position="-346.5196,-261.65766"
       orientation="0,1"
       id="guide5088"
       inkscape:locked="false" />
  </sodipodi:namedview>
  <defs
     id="defs4" />
  <path
     style="fill:#ff0000;fill-opacity:1;stroke:none;stroke-width:0.23600718;stroke-miterlimit:4;stroke-dasharray:none;stroke-opacity:1"
     d="M 101.36288,16.0289 H 935.83865 V 721.32834 H 101.36288 Z"
     id="rect861" />
  <g
     aria-label="rLh"
     style="font-style:normal;font-weight:normal;font-size:50.79999924px;line-height:1.25;font-family:sans-serif;letter-spacing:0px;word-spacing:0px;fill:#ff0066;fill-opacity:1;stroke:none;stroke-width:0.26458332"
     id="text12"
     transform="matrix(4.50062,0,0,4.50062,-841.39551,431.82216)">
    <text
       xml:space="preserve"
       style="font-style:normal;font-weight:normal;font-size:42.66078949px;line-height:1.25;font-family:sans-serif;letter-spacing:0px;word-spacing:0px;fill:#000000;fill-opacity:1;stroke:none;stroke-width:0.0587882"
       x="166.25029"
       y="98.70874"
       id="text108"><tspan
         sodipodi:role="line"
         id="tspan106"
         x="166.25029"
         y="137.62947"
         style="font-style:normal;font-variant:normal;font-weight:normal;font-stretch:normal;font-family:Anandaround;-inkscape-font-specification:Anandaround;stroke-width:0.0587882" /></text>
    <text
       xml:space="preserve"
       style="font-style:normal;font-variant:normal;font-weight:normal;font-stretch:normal;font-size:42.66078949px;line-height:1.25;font-family:Anandaround;-inkscape-font-specification:Anandaround;letter-spacing:0px;word-spacing:0px;fill:#000000;fill-opacity:1;stroke:none;stroke-width:0.0587882"
       x="483.79941"
       y="-104.57238"
       id="text114"><tspan
         sodipodi:role="line"
         id="tspan112"
         x="483.79941"
         y="-65.651649"
         style="font-style:normal;font-variant:normal;font-weight:normal;font-stretch:normal;font-family:Anandaround;-inkscape-font-specification:Anandaround;stroke-width:0.0587882" /></text>
    <text
       xml:space="preserve"
       style="font-style:normal;font-variant:normal;font-weight:normal;font-stretch:normal;font-size:42.66078949px;line-height:1.25;font-family:'Comic Sans MS';-inkscape-font-specification:'Comic Sans MS';letter-spacing:0px;word-spacing:0px;fill:#000000;fill-opacity:1;stroke:none;stroke-width:0.0587882"
       x="729.29077"
       y="28.01564"
       id="text118"><tspan
         sodipodi:role="line"
         id="tspan116"
         x="729.29077"
         y="65.082283"
         style="font-style:normal;font-variant:normal;font-weight:normal;font-stretch:normal;font-family:'Comic Sans MS';-inkscape-font-specification:'Comic Sans MS';stroke-width:0.0587882" /></text>
  </g>
  <path
     style="fill:#00ffcc;fill-opacity:1;stroke:none;stroke-width:0.23286849;stroke-miterlimit:4;stroke-dasharray:none;stroke-opacity:1"
     d="M -0.61406356,-0.236016 V 767.76395 H 1025.8862 V -0.236016 Z M 661.01057,32.22427 c 7.75348,-0.0284 15.79456,0.4136 24.12687,1.33922 158.49482,17.60684 180.47865,141.82753 178.16991,213.90769 -2.97446,92.86485 -72.47275,166.28395 -159.69287,230.63915 -70.2208,51.8123 -153.79604,98.7539 -191.80033,165.73982 l 0.002,1.5624 c -0.14526,-0.2622 -0.29824,-0.5213 -0.44492,-0.7829 -0.14664,0.2616 -0.29965,0.5207 -0.44489,0.7829 l 0.002,-1.5624 C 472.92405,576.86423 389.34881,529.92263 319.12796,478.11033 231.9079,413.75513 162.41153,340.33603 159.43707,247.47118 157.12835,175.39102 179.3011,52.52684 337.60502,33.56349 c 6.93522,-0.83077 13.71091,-0.98553 20.26254,-1.00796 77.30849,-0.26472 126.52819,42.8581 153.50365,120.33901 26.51828,-76.16767 74.68904,-120.3956 149.63936,-120.67027 z"
     id="rect851-5"
     inkscape:connector-curvature="0" />
  <g
     aria-label="YAY!!!"
     style="font-style:normal;font-variant:normal;font-weight:normal;font-stretch:normal;font-size:171.16841125px;line-height:1.25;font-family:Forte;-inkscape-font-specification:Forte;letter-spacing:0px;word-spacing:0px;fill:#ffffff;fill-opacity:1;stroke:none;stroke-width:4.27921009"
     id="text4526">
    <path
       d="m 302.06312,200.69258 0.66862,6.26838 q 0.33432,1.50441 0.50147,5.18185 1.92231,22.90046 6.01764,40.8698 1.83873,7.52205 4.42966,14.54263 3.51028,-7.02058 7.18773,-15.0441 1.33725,-3.00882 2.50735,-5.68332 1.1701,-2.67451 1.50441,-3.59387 0.41789,-0.91936 1.58799,-3.59387 1.75514,-4.17891 5.68333,-14.70978 2.50734,-7.02058 3.34313,-9.2772 0.91936,-2.25661 3.51029,-7.77278 3.0924,-6.937 8.35783,-12.20244 3.00882,-3.0924 6.85342,-5.93406 3.84461,-2.84166 7.27132,-4.42965 3.42671,-1.58799 5.59975,-1.58799 3.25955,0 3.25955,2.59093 0,2.34019 -1.75514,6.10122 -4.59681,11.45023 -12.62033,28.08231 -7.93994,16.63209 -16.29778,32.4284 -8.27425,15.7963 -14.04115,24.90634 -4.68039,7.77278 -9.36078,14.04116 -8.8593,12.28601 -15.96346,18.72154 -7.10415,6.51911 -16.04704,10.36371 -4.68038,2.08946 -10.28013,3.0924 -4.17892,0.66863 -6.51911,0.66863 -4.26249,0 -6.85342,-1.50441 -2.59093,-1.50441 -2.59093,-4.2625 0,-3.0924 2.92524,-9.27719 3.00882,-6.10122 6.1848,-9.61151 2.00588,-2.00588 7.52205,-2.00588 6.01764,0 10.11297,-1.42083 2.84167,-0.75221 5.85049,-2.17304 3.00882,-1.42083 6.76984,-3.92818 -6.43553,-10.94876 -11.11592,-20.47669 -4.5968,-9.52793 -7.85636,-18.72154 -4.34607,-11.9517 -7.10416,-25.65855 -2.6745,-13.79042 -2.6745,-23.98698 0,-5.93406 1.33725,-8.94288 1.33725,-3.0924 4.68039,-5.09828 4.84754,-3.0924 10.86518,-5.26543 6.01764,-2.25662 9.86224,-2.25662 3.25956,0 4.34607,2.3402 1.1701,2.34019 1.42084,9.77866 0.41789,5.43259 0.91936,8.44141 z"
       style="stroke-width:4.27921009"
       id="path4548" />
    <path
       d="m 429.52007,215.06805 -15.37842,32.51197 h 22.73331 l -7.02058,-32.51197 z m -7.18774,-21.9811 -5.09828,-9.19361 q 1.9223,-1.50441 3.59387,-2.08946 6.43553,-2.17304 15.54557,-2.17304 9.19361,0 14.20831,5.26544 4.34608,4.59681 7.10416,12.87106 2.75809,8.27425 5.09828,23.56909 1.25367,7.77278 2.17304,11.70096 2.92524,10.94876 3.8446,14.04116 1.00294,3.00882 3.51029,9.69509 0.83578,1.9223 2.17303,5.43259 1.42084,3.42671 2.67451,6.43553 2.75809,6.51911 8.35783,17.21714 -7.02058,4.93112 -11.86812,7.10415 -4.84754,2.17304 -8.8593,2.17304 -4.93112,0 -8.27426,-1.9223 -3.25955,-1.9223 -5.93406,-6.10122 -3.17597,-5.68333 -6.35195,-15.46199 -0.33431,-0.91936 -0.83578,-2.34019 -0.41789,-1.42083 -1.00294,-3.0924 -9.77867,4.09534 -15.21126,4.09534 -3.0924,0 -5.34901,-0.16716 -1.9223,-0.16716 -17.80218,-0.50147 l -0.83579,1.67157 q -4.68038,9.77866 -8.69214,14.87694 -4.01176,5.09828 -9.2772,7.18773 -5.18185,2.08946 -13.03822,2.08946 -4.51323,0 -6.43553,-1.00294 -1.9223,-1.00294 -1.9223,-3.25955 0,-2.75809 9.19362,-15.21126 3.25955,-4.34607 4.84754,-6.85342 -8.77572,-1.67157 -8.77572,-6.1848 0,-3.67744 7.02058,-10.94876 3.34313,-3.51029 6.18479,-4.42965 2.92524,-1.00294 10.11298,-1.08652 6.68626,-12.28601 8.52499,-15.62914 1.83872,-3.42671 4.76396,-8.52499 2.92524,-5.18186 6.60269,-11.70097 3.76102,-6.60269 10.0294,-17.55145 z"
       style="stroke-width:4.27921009"
       id="path4550" />
    <path
       d="m 517.19373,200.69258 0.66863,6.26838 q 0.33431,1.50441 0.50147,5.18185 1.9223,22.90046 6.01764,40.8698 1.83872,7.52205 4.42965,14.54263 3.51029,-7.02058 7.18774,-15.0441 1.33725,-3.00882 2.50735,-5.68332 1.17009,-2.67451 1.50441,-3.59387 0.41789,-0.91936 1.58798,-3.59387 1.75515,-4.17891 5.68333,-14.70978 2.50735,-7.02058 3.34313,-9.2772 0.91936,-2.25661 3.51029,-7.77278 3.0924,-6.937 8.35784,-12.20244 3.00882,-3.0924 6.85342,-5.93406 3.8446,-2.84166 7.27131,-4.42965 3.42671,-1.58799 5.59975,-1.58799 3.25956,0 3.25956,2.59093 0,2.34019 -1.75515,6.10122 -4.59681,11.45023 -12.62033,28.08231 -7.93994,16.63209 -16.29777,32.4284 -8.27425,15.7963 -14.04116,24.90634 -4.68039,7.77278 -9.36077,14.04116 -8.8593,12.28601 -15.96346,18.72154 -7.10416,6.51911 -16.04704,10.36371 -4.68039,2.08946 -10.28013,3.0924 -4.17892,0.66863 -6.51911,0.66863 -4.2625,0 -6.85343,-1.50441 -2.59092,-1.50441 -2.59092,-4.2625 0,-3.0924 2.92524,-9.27719 3.00882,-6.10122 6.18479,-9.61151 2.00588,-2.00588 7.52205,-2.00588 6.01764,0 10.11298,-1.42083 2.84166,-0.75221 5.85048,-2.17304 3.00882,-1.42083 6.76985,-3.92818 -6.43553,-10.94876 -11.11592,-20.47669 -4.59681,-9.52793 -7.85636,-18.72154 -4.34608,-11.9517 -7.10416,-25.65855 -2.67451,-13.79042 -2.67451,-23.98698 0,-5.93406 1.33726,-8.94288 1.33725,-3.0924 4.68038,-5.09828 4.84755,-3.0924 10.86518,-5.26543 6.01764,-2.25662 9.86225,-2.25662 3.25955,0 4.34607,2.3402 1.1701,2.34019 1.42083,9.77866 0.41789,5.43259 0.91936,8.44141 z"
       style="stroke-width:4.27921009"
       id="path4552" />
    <path
       d="m 604.36592,264.12853 q -5.68333,0 -5.68333,-5.59975 0,-1.42083 0.91936,-5.51617 6.85342,-29.75388 14.70979,-51.31709 1.83872,-5.34901 4.42965,-8.19067 3.0924,-3.34314 9.52793,-5.68333 6.43553,-2.42377 12.53675,-2.42377 5.68332,0 5.68332,3.92818 0,4.51323 -11.28307,32.92986 -11.70097,28.83452 -13.53969,31.42545 -1.67157,2.42377 -5.0147,4.84754 -3.34313,2.42377 -6.76984,4.01176 -3.42672,1.58799 -5.51617,1.58799 z m -6.01764,31.17472 q -3.17598,0 -5.18186,-1.75515 -2.00588,-1.83872 -2.00588,-4.76396 0,-5.18186 5.51617,-13.70685 1.00294,-1.50441 2.00588,-2.50735 2.50735,-2.50735 6.35195,-4.09534 3.84461,-1.58798 7.3549,-1.58798 3.34313,0 5.34901,1.42083 2.00588,1.42083 2.00588,3.76102 0,2.84166 -1.50441,7.18774 -1.50441,4.26249 -3.59387,7.6892 -1.1701,1.92231 -3.92818,3.76103 -6.85342,4.59681 -12.36959,4.59681 z"
       style="stroke-width:4.27921009"
       id="path4554" />
    <path
       d="m 666.88252,264.12853 q -5.68333,0 -5.68333,-5.59975 0,-1.42083 0.91936,-5.51617 6.85343,-29.75388 14.70979,-51.31709 1.83872,-5.34901 4.42965,-8.19067 3.0924,-3.34314 9.52793,-5.68333 6.43553,-2.42377 12.53675,-2.42377 5.68332,0 5.68332,3.92818 0,4.51323 -11.28307,32.92986 -11.70097,28.83452 -13.53969,31.42545 -1.67157,2.42377 -5.0147,4.84754 -3.34313,2.42377 -6.76984,4.01176 -3.42671,1.58799 -5.51617,1.58799 z m -6.01764,31.17472 q -3.17598,0 -5.18186,-1.75515 -2.00588,-1.83872 -2.00588,-4.76396 0,-5.18186 5.51617,-13.70685 1.00294,-1.50441 2.00588,-2.50735 2.50735,-2.50735 6.35195,-4.09534 3.84461,-1.58798 7.3549,-1.58798 3.34313,0 5.34901,1.42083 2.00588,1.42083 2.00588,3.76102 0,2.84166 -1.50441,7.18774 -1.50441,4.26249 -3.59387,7.6892 -1.17009,1.92231 -3.92818,3.76103 -6.85342,4.59681 -12.36959,4.59681 z"
       style="stroke-width:4.27921009"
       id="path4556" />
    <path
       d="m 729.39909,264.12853 q -5.68333,0 -5.68333,-5.59975 0,-1.42083 0.91936,-5.51617 6.85343,-29.75388 14.70979,-51.31709 1.83872,-5.34901 4.42965,-8.19067 3.0924,-3.34314 9.52793,-5.68333 6.43553,-2.42377 12.53675,-2.42377 5.68332,0 5.68332,3.92818 0,4.51323 -11.28307,32.92986 -11.70096,28.83452 -13.53969,31.42545 -1.67156,2.42377 -5.0147,4.84754 -3.34313,2.42377 -6.76984,4.01176 -3.42671,1.58799 -5.51617,1.58799 z m -6.01764,31.17472 q -3.17598,0 -5.18186,-1.75515 -2.00588,-1.83872 -2.00588,-4.76396 0,-5.18186 5.51617,-13.70685 1.00294,-1.50441 2.00588,-2.50735 2.50735,-2.50735 6.35196,-4.09534 3.8446,-1.58798 7.35489,-1.58798 3.34313,0 5.34901,1.42083 2.00588,1.42083 2.00588,3.76102 0,2.84166 -1.50441,7.18774 -1.50441,4.26249 -3.59387,7.6892 -1.17009,1.92231 -3.92818,3.76103 -6.85342,4.59681 -12.36959,4.59681 z"
       style="stroke-width:4.27921009"
       id="path4558" />
  </g>
  <g
     aria-label="You only took "
     style="font-style:normal;font-variant:normal;font-weight:normal;font-stretch:normal;font-size:171.16841125px;line-height:1.25;font-family:Forte;-inkscape-font-specification:Forte;letter-spacing:0px;word-spacing:0px;fill:#ffffff;fill-opacity:1;stroke:none;stroke-width:4.27921009"
     id="text4530">
    <path
       d="m 363.7095,351.0361 0.1875,1.75781 q 0.0937,0.42188 0.14063,1.45313 0.53906,6.42187 1.6875,11.46094 0.51562,2.10937 1.24219,4.07812 0.98437,-1.96875 2.01562,-4.21875 0.375,-0.84375 0.70313,-1.59375 0.32812,-0.75 0.42187,-1.00781 0.11719,-0.25781 0.44531,-1.00781 0.49219,-1.17188 1.59375,-4.125 0.70313,-1.96875 0.9375,-2.60157 0.25782,-0.63281 0.98438,-2.17968 0.86719,-1.94532 2.34375,-3.42188 0.84375,-0.86719 1.92187,-1.66406 1.07813,-0.79688 2.03907,-1.24219 0.96093,-0.44531 1.57031,-0.44531 0.91406,0 0.91406,0.72656 0,0.65625 -0.49219,1.71094 -1.28906,3.21094 -3.53906,7.875 -2.22656,4.66406 -4.57031,9.09375 -2.32031,4.42969 -3.9375,6.98437 -1.3125,2.17969 -2.625,3.9375 -2.48438,3.44532 -4.47656,5.25 -1.99219,1.82813 -4.5,2.90625 -1.3125,0.58594 -2.88282,0.86719 -1.17187,0.1875 -1.82812,0.1875 -1.19531,0 -1.92188,-0.42187 -0.72656,-0.42188 -0.72656,-1.19532 0,-0.86718 0.82031,-2.60156 0.84375,-1.71094 1.73438,-2.69531 0.5625,-0.5625 2.10937,-0.5625 1.6875,0 2.83594,-0.39844 0.79688,-0.21094 1.64063,-0.60937 0.84375,-0.39844 1.89843,-1.10157 -1.80468,-3.07031 -3.11718,-5.74218 -1.28907,-2.67188 -2.20313,-5.25 -1.21875,-3.35157 -1.99219,-7.19532 -0.75,-3.86718 -0.75,-6.72656 0,-1.66406 0.375,-2.50781 0.375,-0.86719 1.3125,-1.42969 1.35938,-0.86719 3.04688,-1.47656 1.6875,-0.63281 2.76562,-0.63281 0.91407,0 1.21875,0.65625 0.32813,0.65625 0.39844,2.74218 0.11719,1.52344 0.25781,2.36719 z"
       style="font-size:48px;line-height:0;stroke-width:4.27921009"
       id="path4585" />
    <path
       d="m 395.18607,353.89548 q 3.49218,0 3.49218,0.82031 0,0.9375 -1.57031,1.00781 -1.89844,0.11719 -3.53906,1.07813 -1.64063,0.96093 -2.92969,2.625 -1.26562,1.66406 -1.99219,3.75 -0.70312,2.08593 -0.70312,4.40625 0,2.55468 1.19531,4.125 1.19531,1.54687 3.11719,1.54687 1.78125,0 3.11719,-1.82812 1.33593,-1.82813 1.33593,-4.26563 0,-1.99219 -0.84375,-3.72656 -0.82031,-1.75781 -2.41406,-2.95313 -0.67969,-0.53906 -0.67969,-0.77343 0,-0.32813 0.96094,-1.00782 1.07813,-0.72656 2.41406,-1.21875 1.33594,-0.49218 2.25,-0.49218 1.05469,0 1.99219,0.5625 0.96094,0.53906 1.6875,1.57031 0.72656,1.00781 1.10156,2.34375 0.39844,1.3125 0.39844,2.8125 0,2.48437 -0.9375,4.92187 -0.9375,2.41407 -2.46094,3.91407 -1.96875,1.89843 -4.75781,3.11718 -2.76562,1.19532 -5.27344,1.19532 -2.4375,0 -4.85156,-0.84375 -2.39062,-0.84375 -3.79687,-2.22657 -1.875,-1.875 -1.875,-5.32031 0,-2.71875 1.33593,-5.4375 1.33594,-2.71875 3.60938,-4.92187 2.29687,-2.22657 5.03906,-3.49219 2.76563,-1.28906 5.57813,-1.28906 z"
       style="font-size:48px;line-height:0;stroke-width:4.27921009"
       id="path4587" />
    <path
       d="m 420.147,370.13766 -0.39843,0.32813 q -0.11719,0.0703 -1.57032,1.19531 -2.8125,2.20313 -4.64062,3.49219 -1.82813,1.26562 -3.04688,1.875 -1.21875,0.58594 -1.96875,0.58594 -1.26562,0 -2.03906,-1.03125 -0.75,-1.05469 -0.75,-2.71875 0,-2.8125 0.84375,-6.53907 0.84375,-3.75 2.27344,-7.38281 1.57031,-4.03125 3.84375,-4.92187 0.79687,-0.35157 1.875,-0.35157 1.47656,0 2.39062,0.91407 0.91407,0.91406 0.91407,2.41406 0,1.03125 -0.35157,2.17969 -0.35156,1.14843 -1.125,2.74218 l -0.28125,0.67969 q -2.01562,4.26563 -2.01562,5.17969 0,0.53906 0.375,0.53906 0.35156,0 0.91406,-0.49219 0.5625,-0.49218 1.73438,-1.80468 0.72656,-0.89063 2.0625,-2.22657 l 0.86718,-0.86718 0.75,-0.79688 q 2.36719,-2.34375 3.86719,-3.375 1.5,-1.05469 2.48438,-1.05469 1.875,0 1.875,3.25782 0,0.67968 -0.16407,2.41406 -0.28125,3.375 -0.28125,5.71875 0.0234,0.46875 0.0234,0.86719 0.0234,0.375 0.0234,0.98437 0.16406,1.57031 0.23437,2.41406 0.16407,1.33594 0.16407,1.33594 0,0.70313 -1.26563,1.24219 -1.26562,0.53906 -2.92969,0.53906 -1.52343,0 -2.625,-0.58594 -1.07812,-0.60937 -1.64062,-1.78125 -0.5625,-1.17187 -0.5625,-2.85937 0,-0.21094 0.0469,-0.72656 0.0469,-0.53907 0.0937,-1.38282 z"
       style="font-size:48px;line-height:0;stroke-width:4.27921009"
       id="path4589" />
    <path
       d="m 459.54544,353.89548 q 3.49219,0 3.49219,0.82031 0,0.9375 -1.57031,1.00781 -1.89844,0.11719 -3.53907,1.07813 -1.64062,0.96093 -2.92968,2.625 -1.26563,1.66406 -1.99219,3.75 -0.70313,2.08593 -0.70313,4.40625 0,2.55468 1.19532,4.125 1.19531,1.54687 3.11718,1.54687 1.78125,0 3.11719,-1.82812 1.33594,-1.82813 1.33594,-4.26563 0,-1.99219 -0.84375,-3.72656 -0.82031,-1.75781 -2.41406,-2.95313 -0.67969,-0.53906 -0.67969,-0.77343 0,-0.32813 0.96094,-1.00782 1.07812,-0.72656 2.41406,-1.21875 1.33594,-0.49218 2.25,-0.49218 1.05469,0 1.99219,0.5625 0.96093,0.53906 1.6875,1.57031 0.72656,1.00781 1.10156,2.34375 0.39844,1.3125 0.39844,2.8125 0,2.48437 -0.9375,4.92187 -0.9375,2.41407 -2.46094,3.91407 -1.96875,1.89843 -4.75781,3.11718 -2.76563,1.19532 -5.27344,1.19532 -2.4375,0 -4.85156,-0.84375 -2.39063,-0.84375 -3.79688,-2.22657 -1.875,-1.875 -1.875,-5.32031 0,-2.71875 1.33594,-5.4375 1.33594,-2.71875 3.60937,-4.92187 2.29688,-2.22657 5.03907,-3.49219 2.76562,-1.28906 5.57812,-1.28906 z"
       style="font-size:48px;line-height:0;stroke-width:4.27921009"
       id="path4591" />
    <path
       d="m 480.02982,365.0986 1.40625,-1.64062 q 2.13281,-2.36719 3.375,-3.51563 1.26562,-1.17187 2.25,-1.6875 1.00781,-0.51562 2.03906,-0.51562 1.66406,0 2.34375,0.89062 0.67969,0.89063 0.67969,3.09375 0,0.91406 -0.1875,2.69531 -0.28125,2.36719 -0.28125,4.45313 0,2.34375 0.23437,3.79687 0.16406,0.89063 0.49219,1.78125 0.23437,0.84375 0.23437,1.14844 0,0.375 -0.28125,0.58594 -0.72656,0.63281 -1.92187,1.10156 -1.19531,0.46875 -2.01563,0.46875 -1.33593,0 -2.4375,-0.91406 -1.07812,-0.91406 -1.6875,-2.53125 -0.58593,-1.61719 -0.58593,-3.65625 0,-1.35938 0.28125,-3.21094 l -0.0937,-0.0937 q -1.00782,1.125 -1.64063,1.78125 -0.60937,0.65625 -1.14844,1.24219 -2.625,3 -4.45312,5.41406 -0.70313,0.9375 -1.28906,1.64063 -0.86719,0.86718 -1.96875,0.86718 -1.5,0 -2.4375,-1.125 -0.9375,-1.125 -0.9375,-2.90625 0,-1.10156 0.25781,-2.69531 0.25781,-1.59375 0.67969,-3.39844 0.44531,-1.82812 1.03125,-3.75 0.60937,-1.92187 1.3125,-3.65625 1.07812,-2.88281 2.625,-4.5 1.05468,-1.05468 2.55468,-1.05468 2.4375,0 2.4375,3.16406 0,2.32031 -0.96093,6.63281 z"
       style="font-size:48px;line-height:0;stroke-width:4.27921009"
       id="path4593" />
    <path
       d="m 507.10013,359.94235 q 0.9375,-2.64844 1.57031,-5.53125 0.63281,-2.90625 0.63281,-4.45312 0,-0.42188 -0.23437,-0.42188 -0.375,0 -1.3125,1.6875 -0.9375,1.66406 -1.57031,3.39844 -1.35938,3.82031 -2.10938,6.35156 -0.72656,2.50781 -1.00781,4.21875 -0.28125,1.71094 -0.28125,3.49219 0,1.52344 0.32812,2.22656 0.35157,0.70313 1.10157,0.70313 1.28906,0 2.88281,-1.125 1.59375,-1.14844 2.88281,-3 1.00781,-1.38282 1.57031,-1.38282 0.72657,0 0.72657,1.14844 0,2.50781 -1.57032,4.89844 -1.57031,2.39062 -4.05468,3.89062 -2.46094,1.47657 -5.03907,1.47657 -3.16406,0 -5.15625,-1.99219 -1.99218,-1.99219 -1.99218,-5.20313 0,-2.625 1.125,-6.14062 1.125,-3.53906 3,-7.10156 1.89843,-3.58594 4.14843,-6.49219 2.25,-2.90625 4.45313,-4.45313 1.35937,-1.00781 3.02344,-1.00781 1.26562,0 2.29687,0.79688 1.03125,0.77343 1.59375,2.17968 0.5625,1.40625 0.5625,3.11719 0,3.67969 -1.45312,7.19531 -1.42969,3.51563 -4.00782,6.09375 -1.21875,1.24219 -2.34375,1.94532 -1.125,0.70312 -1.96875,0.70312 -0.82031,0 -0.82031,-0.63281 0,-0.35156 0.60938,-1.33594 0.82031,-1.28906 1.92187,-3.89062 0.0937,-0.25782 0.21094,-0.53907 0.11719,-0.30468 0.28125,-0.82031 z"
       style="font-size:48px;line-height:0;stroke-width:4.27921009"
       id="path4595" />
    <path
       d="m 530.72513,361.39548 0.30469,-1.00782 q 0.60937,-2.34375 1.85156,-3.60937 0.79687,-0.79688 1.82812,-1.3125 1.03125,-0.51563 1.875,-0.51563 1.54688,0 1.54688,1.3125 0,0.65625 -0.42188,2.03907 -0.42187,1.38281 -1.125,3.14062 -0.67968,1.73438 -1.61718,3.82031 -0.91407,2.08594 -2.03907,4.28907 -2.03906,4.17187 -4.125,7.05468 -1.5,2.0625 -3.04687,3.65625 -1.54688,1.59375 -3.25781,2.85938 -1.6875,1.26562 -3.21094,1.89844 -1.5,0.65625 -2.76563,0.65625 -1.05468,0 -1.05468,-0.91407 0,-0.72656 0.32812,-1.73437 0.32813,-1.00781 0.91406,-1.89844 0.63282,-0.84375 1.59375,-1.5 1.21875,-0.84375 3.58594,-1.92187 -1.40625,-2.36719 -2.13281,-3.75 -0.72656,-1.38282 -1.59375,-3.44532 -1.92188,-4.57031 -1.92188,-8.29687 0,-2.83594 0.70313,-4.61719 0.63281,-1.52344 2.32031,-2.15625 1.35938,-0.53906 2.4375,-0.53906 1.52344,0 2.03906,1.17187 0.53907,1.14844 0.9375,5.41407 0.42188,4.57031 1.35938,9.02343 0.16406,0.67969 0.375,1.875 h 0.0937 q 0.63281,-1.38281 1.38281,-3.35156 0.23438,-0.5625 1.64063,-4.14844 0.79687,-2.15625 1.19531,-3.49218 z"
       style="font-size:48px;line-height:0;stroke-width:4.27921009"
       id="path4597" />
    <path
       d="m 556.92825,354.80954 0.0937,-0.28125 q 1.54688,-4.35938 2.67188,-6.14063 0.53906,-0.84375 1.5,-1.5 1.80469,-1.14843 3.39844,-1.14843 0.9375,0 1.42968,0.42187 0.49219,0.42188 0.49219,1.21875 0,0.53906 -0.70312,2.20313 -1.19532,2.76562 -1.78125,5.17968 0.39843,0.0469 0.77343,0.14063 1.40625,0.21094 1.85157,0.49219 0.44531,0.25781 0.44531,0.96093 0,1.24219 -0.63281,2.29688 -0.63282,1.05469 -1.66407,1.54687 -0.77343,0.35157 -2.50781,0.46875 -0.30469,0.91407 -0.67969,2.50782 -0.21093,1.40625 -0.46875,3.89062 -0.14062,0.91406 -0.14062,1.71094 0,3.70312 3.58594,3.70312 h 0.14062 0.0703 q 0.42188,0 0.42188,0.14063 0,0.375 -0.79688,1.26562 -0.79687,0.89063 -1.75781,1.57032 -1.03125,0.70312 -2.25,1.125 -1.21875,0.42187 -2.20312,0.42187 -2.46094,0 -4.00782,-1.66406 -1.52343,-1.66406 -1.52343,-4.40625 0,-1.17188 0.39843,-3.07031 0.42188,-1.89844 1.28907,-5.08594 0.14062,-0.5625 0.30468,-1.17188 0.16407,-0.63281 0.1875,-0.75 -0.9375,-0.0234 -1.33593,-0.39843 -0.39844,-0.375 -0.39844,-1.21875 0,-1.47657 1.125,-2.78907 1.14844,-1.3125 2.67187,-1.64062 z"
       style="font-size:48px;line-height:0;stroke-width:4.27921009"
       id="path4599" />
    <path
       d="m 584.60794,353.89548 q 3.49219,0 3.49219,0.82031 0,0.9375 -1.57031,1.00781 -1.89844,0.11719 -3.53907,1.07813 -1.64062,0.96093 -2.92968,2.625 -1.26563,1.66406 -1.99219,3.75 -0.70313,2.08593 -0.70313,4.40625 0,2.55468 1.19532,4.125 1.19531,1.54687 3.11718,1.54687 1.78125,0 3.11719,-1.82812 1.33594,-1.82813 1.33594,-4.26563 0,-1.99219 -0.84375,-3.72656 -0.82031,-1.75781 -2.41406,-2.95313 -0.67969,-0.53906 -0.67969,-0.77343 0,-0.32813 0.96094,-1.00782 1.07812,-0.72656 2.41406,-1.21875 1.33594,-0.49218 2.25,-0.49218 1.05469,0 1.99219,0.5625 0.96093,0.53906 1.6875,1.57031 0.72656,1.00781 1.10156,2.34375 0.39844,1.3125 0.39844,2.8125 0,2.48437 -0.9375,4.92187 -0.9375,2.41407 -2.46094,3.91407 -1.96875,1.89843 -4.75781,3.11718 -2.76563,1.19532 -5.27344,1.19532 -2.4375,0 -4.85156,-0.84375 -2.39063,-0.84375 -3.79688,-2.22657 -1.875,-1.875 -1.875,-5.32031 0,-2.71875 1.33594,-5.4375 1.33594,-2.71875 3.60937,-4.92187 2.29688,-2.22657 5.03907,-3.49219 2.76562,-1.28906 5.57812,-1.28906 z"
       style="font-size:48px;line-height:0;stroke-width:4.27921009"
       id="path4601" />
    <path
       d="m 610.67044,353.89548 q 3.49219,0 3.49219,0.82031 0,0.9375 -1.57031,1.00781 -1.89844,0.11719 -3.53907,1.07813 -1.64062,0.96093 -2.92968,2.625 -1.26563,1.66406 -1.99219,3.75 -0.70313,2.08593 -0.70313,4.40625 0,2.55468 1.19532,4.125 1.19531,1.54687 3.11718,1.54687 1.78125,0 3.11719,-1.82812 1.33594,-1.82813 1.33594,-4.26563 0,-1.99219 -0.84375,-3.72656 -0.82031,-1.75781 -2.41406,-2.95313 -0.67969,-0.53906 -0.67969,-0.77343 0,-0.32813 0.96094,-1.00782 1.07812,-0.72656 2.41406,-1.21875 1.33594,-0.49218 2.25,-0.49218 1.05469,0 1.99219,0.5625 0.96093,0.53906 1.6875,1.57031 0.72656,1.00781 1.10156,2.34375 0.39844,1.3125 0.39844,2.8125 0,2.48437 -0.9375,4.92187 -0.9375,2.41407 -2.46094,3.91407 -1.96875,1.89843 -4.75781,3.11718 -2.76563,1.19532 -5.27344,1.19532 -2.4375,0 -4.85156,-0.84375 -2.39063,-0.84375 -3.79688,-2.22657 -1.875,-1.875 -1.875,-5.32031 0,-2.71875 1.33594,-5.4375 1.33594,-2.71875 3.60937,-4.92187 2.29688,-2.22657 5.03907,-3.49219 2.76562,-1.28906 5.57812,-1.28906 z"
       style="font-size:48px;line-height:0;stroke-width:4.27921009"
       id="path4603" />
    <path
       d="m 643.41263,381.64548 q -3.28125,4.21875 -4.99219,4.21875 -1.24219,0 -2.625,-0.98438 -1.35937,-0.96094 -2.55469,-2.625 -1.19531,-1.64062 -1.89843,-3.5625 -0.70313,-1.92187 -0.70313,-3.65625 0,-0.98437 0.32813,-1.3125 0.14062,-0.14062 0.63281,-0.46875 3.9375,-2.4375 3.9375,-4.61719 0,-1.14843 -1.00781,-1.14843 -1.07813,0 -2.78907,2.08593 -1.6875,2.0625 -3.07031,5.0625 -0.82031,1.89844 -1.40625,2.41407 -0.53906,0.46875 -1.66406,0.46875 -1.24219,0 -2.15625,-0.67969 -0.91406,-0.70313 -1.42969,-1.96875 -0.49219,-1.28906 -0.49219,-2.92969 0,-2.53125 0.63282,-5.53125 0.63281,-3 1.75781,-6.02344 1.14844,-3.02343 2.71875,-5.90625 1.57031,-2.88281 3.28125,-5.08593 3.375,-4.26563 6.58594,-4.26563 1.59375,0 2.83593,0.72656 1.26563,0.72657 1.94532,2.0625 0.67968,1.33594 0.67968,3.11719 0,2.17969 -1.07812,4.35938 -1.07813,2.15625 -2.8125,3.53906 -1.71094,1.35937 -3.44531,1.35937 -0.82032,0 -0.82032,-0.58593 0,-0.23438 0.42188,-1.10157 2.0625,-4.07812 2.0625,-9.25781 0,-1.33594 -0.32813,-1.33594 -0.23437,0 -0.72656,0.67969 -0.46875,0.67969 -0.91406,1.66406 -2.57813,5.78907 -3.72656,13.33594 -0.0703,0.39844 -0.16407,1.05469 -0.0703,0.65625 -0.1875,1.5 l 0.0937,0.0937 q 0.96094,-1.35938 1.57032,-2.01563 0.63281,-0.67968 1.66406,-1.45312 3.16406,-2.48438 5.90625,-2.48438 1.40625,0 2.29687,0.82032 0.91407,0.82031 0.91407,2.10937 0,3.16406 -2.01563,6.51563 -0.5625,0.98437 -1.3125,1.94531 -0.72656,0.96094 -2.10937,2.48437 0.84375,1.42969 1.92187,2.88282 0.96094,1.26562 2.41406,2.53125 1.26563,1.05468 1.82813,1.96875 z"
       style="font-size:48px;line-height:0;stroke-width:4.27921009"
       id="path4605" />
  </g>
  <g
     aria-label="32.4  seconds"
     style="font-style:normal;font-variant:normal;font-weight:normal;font-stretch:normal;font-size:40px;line-height:1.25;font-family:Forte;-inkscape-font-specification:Forte;text-align:center;letter-spacing:0px;word-spacing:0px;text-anchor:middle;fill:#ffffff;fill-opacity:1;stroke:none"
     id="text4544">
    <path
       d="m 452.53989,456.52097 h 0.1875 q 1.03125,0 2.5625,-0.9375 1.5625,-0.96875 3.0625,-2.53125 1.9375,-2 3.0625,-4.25 1.15625,-2.28125 1.15625,-4.25 0,-4.28125 -4.53125,-5.1875 -0.875,-0.125 -1.25,-0.375 -0.375,-0.28125 -0.375,-0.84375 0,-0.625 1.5,-1.90625 2.25,-1.96875 3.5,-4.28125 1.28125,-2.34375 1.28125,-4.6875 0,-2.5 -1.03125,-2.5 -0.84375,0 -2.09375,1.34375 -1.25,1.3125 -2.40625,3.375 -1.125,2.0625 -1.6875,4.0625 -0.1875,0.6875 -0.375,0.90625 -0.1875,0.1875 -0.53125,0.1875 -0.90625,0 -2.25,-1.40625 -1.90625,-2.03125 -1.90625,-4.125 0,-2.40625 1.9375,-4.78125 1.96875,-2.375 5.09375,-3.84375 3.125,-1.46875 6.40625,-1.46875 2.65625,0 4.84375,1.03125 2.1875,1.03125 3.40625,2.875 1.21875,1.8125 1.21875,4.09375 0,4.15625 -3.59375,6.65625 -1.875,1.28125 -4.65625,2.4375 v 0.125 q 4.40625,0.25 6.625,1.96875 2.21875,1.71875 2.21875,4.8125 0,1.4375 -0.6875,3.1875 -0.65625,1.71875 -1.90625,3.5625 -1.21875,1.8125 -2.9375,3.625 -3.75,3.96875 -8.15625,6.21875 -4.40625,2.21875 -8.46875,2.21875 -3.875,0 -6.46875,-2.46875 -2.5625,-2.46875 -2.5625,-6.1875 0,-2.53125 1.71875,-5.0625 1.75,-2.53125 4.5,-4.125 2.75,-1.625 5.5,-1.625 1.15625,0 1.15625,0.84375 0,0.34375 -0.96875,1.15625 -0.0937,0.0937 -0.21875,0.21875 -0.0937,0.0937 -0.21875,0.21875 -1.21875,1.40625 -1.90625,3.5 -0.65625,2.09375 -0.65625,4.375 0,2.25 0.90625,3.84375 z"
       style="font-size:64px"
       id="path4561" />
    <path
       d="m 485.44614,444.80222 0.5,-0.625 q 2.125,-3.21875 3,-4.78125 0.875,-1.5625 1.40625,-3.28125 0.78125,-2.375 0.78125,-4.9375 0,-2.625 -0.65625,-3.9375 -0.625,-1.3125 -2.34375,-2.15625 -2.1875,3.15625 -2.1875,8 0,1.875 0.59375,3.84375 0.25,0.71875 0.25,0.96875 0,0.90625 -0.96875,0.90625 -0.875,0 -2.375,-0.71875 -1.5,-0.75 -2.28125,-1.53125 -0.875,-0.9375 -1.4375,-2.4375 -0.5625,-1.5 -0.5625,-3.1875 0,-2.375 0.96875,-4.53125 1,-2.15625 2.78125,-3.75 1.78125,-1.59375 4.21875,-2.46875 2.46875,-0.90625 5.21875,-0.90625 2.75,0 5,1.21875 2.28125,1.1875 3.625,3.3125 1.34375,2.09375 1.34375,4.5625 0,1.84375 -0.71875,3.9375 -0.6875,2.09375 -2.21875,4.6875 -1.5,2.5625 -3.875,5.65625 -2.375,3.09375 -5.53125,6.65625 l -0.625,0.75 -0.53125,0.59375 q 1.3125,0.375 3.59375,0.375 2.28125,0 4.5625,-0.25 2.3125,-0.25 3.625,-0.65625 0.875,-0.25 1.15625,-0.25 0.3125,0 0.3125,0.1875 0,1.15625 -1.5,3.59375 -1.46875,2.4375 -3.09375,4.03125 -1.6875,1.59375 -4.0625,2.34375 -2.34375,0.71875 -5.8125,0.71875 -4.4375,0 -7.625,-1.21875 -3.1875,-1.21875 -3.1875,-2.9375 0,-1.1875 3.21875,-4.75 2.28125,-2.59375 4.15625,-5.15625 0.125,-0.1875 0.25,-0.375 0.15625,-0.1875 0.25,-0.34375 0.125,-0.1875 0.3125,-0.5 z"
       style="font-size:64px"
       id="path4563" />
    <path
       d="m 508.10239,460.61472 q -2.8125,0 -2.8125,-1.90625 0,-0.59375 0.3125,-1.8125 0.3125,-1.21875 0.65625,-1.96875 0.9375,-2.15625 1.71875,-2.8125 0.90625,-0.8125 2.6875,-1.4375 1.8125,-0.625 3.1875,-0.625 1.9375,0 1.9375,2.25 0,2.125 -1.21875,5.1875 -0.3125,0.875 -0.75,1.3125 -0.40625,0.40625 -1.375,0.78125 -2.65625,1.03125 -4.34375,1.03125 z"
       style="font-size:64px"
       id="path4565" />
    <path
       d="m 531.28989,445.45847 -2.125,0.125 q -4.59375,0.3125 -5.6875,0.3125 -1.90625,0 -3,-0.1875 -1.0625,-0.21875 -1.4375,-0.71875 -0.34375,-0.53125 -0.34375,-1.53125 0,-0.78125 0.4375,-2.21875 0.46875,-1.4375 1.78125,-4.75 1.0625,-2.59375 1.59375,-4.09375 1.65625,-4.3125 2.625,-6.21875 0.3125,-0.59375 0.53125,-0.96875 0.25,-0.40625 0.5625,-0.9375 1.03125,-1.625 2.5,-2.5625 3.34375,-2.25 6.34375,-2.25 2.375,0 2.375,1.15625 0,1.53125 -5.96875,10 -2.90625,4.125 -5.0625,7.65625 l 7.3125,-0.375 q 0.78125,-2.59375 2.0625,-4.25 1.3125,-1.6875 3.28125,-2.5 1.96875,-0.8125 4.5625,-0.8125 1.34375,0 1.875,0.3125 0.5625,0.28125 0.5625,0.96875 0,0.625 -0.46875,2.15625 -0.46875,1.53125 -1.25,3.625 l -0.25,0.625 q 0.625,-0.0625 0.8125,-0.0625 0.21875,-0.0312 0.53125,-0.0625 0.28125,-0.0312 0.46875,-0.0312 0.21875,-0.0312 0.46875,-0.0312 0.71875,0 0.71875,0.375 0,0.125 -0.0625,0.1875 -0.5625,1.25 -1.5625,2.71875 -1,1.4375 -1.84375,2.28125 -0.65625,0.78125 -1.71875,1.09375 -0.6875,2.25 -2.5625,8.625 -0.0625,0.28125 -0.15625,0.75 -0.0625,0.46875 -0.0937,0.65625 -0.46875,2.59375 -1.21875,3.28125 -2.46875,1.46875 -4.34375,2.1875 -1.875,0.6875 -3.65625,0.6875 -1.28125,0 -2.28125,-0.625 -1,-0.625 -1,-1.46875 0,-0.8125 0.65625,-2.9375 0.65625,-2.15625 1.90625,-5.25 1.25,-3.125 2.125,-4.9375 z"
       style="font-size:64px"
       id="path4567" />
    <path
       d="m 435.03989,520.18061 q 1.15234,-0.0586 2.08984,-1.11329 0.95703,-1.07421 0.95703,-2.32421 0,-0.85938 -0.5664,-1.36719 -0.60547,-0.60547 -2.71485,-1.19141 -3.10547,-0.89844 -4.04297,-2.01172 -0.8789,-0.89843 -0.8789,-2.14843 0,-2.2461 1.62109,-4.49219 1.64063,-2.2461 4.17969,-3.67188 2.53906,-1.44531 5.11719,-1.44531 1.25,0 2.34375,0.58594 1.09375,0.58594 1.73828,1.5625 0.64453,0.95703 0.64453,2.08984 0,1.11328 -0.70313,2.30469 -0.70312,1.19141 -1.77734,1.99219 -1.05469,0.78125 -2.01172,0.78125 -0.54687,0 -0.95703,-0.23438 -0.39063,-0.23437 -0.39063,-0.50781 0,-0.27344 0.15625,-0.80078 0.42969,-1.67969 0.42969,-2.92969 0,-1.23047 -0.74219,-2.32422 -0.95703,0.66406 -1.25,1.05469 -0.74218,0.85937 -1.15234,1.95312 -0.44922,1.11329 -0.44922,2.10938 0,0.70312 0.3125,1.13281 0.33203,0.41016 1.05469,0.70313 0.74219,0.29297 2.22656,0.64453 2.48047,0.60547 3.4961,1.17187 0.23437,0.13672 0.72265,0.56641 0.74219,0.80078 0.74219,2.07031 0,1.34766 -0.83984,2.73438 -0.83985,1.36718 -2.59766,2.83203 -1.875,1.58203 -3.73047,2.26562 -1.85547,0.6836 -4.10156,0.6836 -2.16797,0 -3.41797,-0.85938 -1.23047,-0.85937 -1.23047,-2.34375 0,-1.05469 0.82031,-2.1289 0.82032,-1.09375 2.03125,-1.77735 1.23047,-0.68359 2.40235,-0.68359 0.8789,0 0.8789,0.39062 0,0.19532 -0.2539,0.64453 -0.76172,1.36719 -0.76172,2.51954 0,0.82031 0.60547,1.5625 z"
       style=""
       id="path4569" />
    <path
       d="m 453.92661,513.26654 q 0.89843,-0.60547 1.36718,-1.21093 1.03516,-1.26954 1.60157,-2.91016 0.44921,-1.07422 0.70312,-2.40234 0.25391,-1.32813 0.25391,-2.48047 0,-1.07422 -0.44922,-1.07422 -0.625,0 -1.91406,2.7539 -0.76172,1.66016 -1.25,3.32032 -0.46875,1.64062 -0.46875,2.83203 0,0.41015 0.15625,1.17187 z m 0.0391,0.625 q 0.21484,1.17188 1.52344,1.17188 1.46484,0 3.80859,-1.71875 1.36719,-0.9961 1.83594,-0.9961 0.58593,0 1.09375,0.3125 0.50781,0.3125 0.50781,0.64454 0,0.35156 -0.56641,0.91796 -1.03515,1.03516 -2.38281,2.03125 -1.34766,0.97657 -2.59766,1.64063 -1.25,0.64453 -2.5,1.03516 -1.25,0.37109 -2.22656,0.37109 -2.4414,0 -3.90625,-1.38672 -1.46484,-1.40625 -1.46484,-3.73047 0,-1.77734 0.76172,-4.0039 0.78125,-2.2461 2.08984,-4.19922 1.54297,-2.28516 3.78906,-3.8086 2.77344,-1.83593 5.3125,-1.83593 1.83594,0 2.8711,1.17187 1.05468,1.15234 1.05468,3.18359 0,1.58204 -0.83984,3.30079 -0.82031,1.71875 -2.44141,3.30078 -1.32812,1.32812 -2.61718,2.07031 -1.26953,0.74219 -2.22657,0.74219 -0.42968,0 -0.8789,-0.21485 z"
       style=""
       id="path4571" />
    <path
       d="m 475.00082,500.49311 q 1.48438,0.0586 2.36329,0.85937 0.8789,0.80078 0.8789,2.14844 0,1.17187 -0.68359,2.36328 -0.66406,1.19141 -1.69922,1.95312 -1.01563,0.76172 -2.05078,0.76172 -0.60547,0 -0.60547,-0.42968 0,-0.15625 0.23437,-0.6836 0.76172,-1.28906 0.76172,-2.96875 0,-0.83984 -0.19531,-0.83984 -0.27344,0 -0.78125,0.70312 -0.50781,0.70313 -0.85937,1.66016 -0.60547,1.50391 -1.01563,3.20312 -0.39062,1.69922 -0.39062,2.8711 0,1.32812 0.39062,2.08984 0.41016,0.76172 1.13281,0.76172 0.66407,0 1.77735,-0.70312 1.11328,-0.70313 2.10937,-1.73829 0.41016,-0.52734 0.72266,-0.52734 0.46875,0 0.46875,0.52734 0,2.40235 -1.875,4.35547 -1.28906,1.28907 -2.96875,2.08985 -1.66016,0.78125 -2.98828,0.78125 -2.32422,0 -3.86719,-1.46485 -1.54297,-1.46484 -1.54297,-3.6914 0,-2.22657 0.97656,-4.66797 0.9961,-2.46094 2.69532,-4.66797 1.71875,-2.20703 3.88671,-3.69141 1.5625,-1.05468 3.04688,-1.05468 z"
       style=""
       id="path4573" />
    <path
       d="m 492.71567,499.69232 q 2.91015,0 2.91015,0.6836 0,0.78125 -1.30859,0.83984 -1.58203,0.0977 -2.94922,0.89844 -1.36719,0.80078 -2.4414,2.1875 -1.05469,1.38672 -1.66016,3.125 -0.58594,1.73828 -0.58594,3.67187 0,2.12891 0.9961,3.4375 0.99609,1.28907 2.59765,1.28907 1.48438,0 2.59766,-1.52344 1.11328,-1.52344 1.11328,-3.55469 0,-1.66015 -0.70313,-3.10547 -0.68359,-1.46484 -2.01171,-2.46093 -0.56641,-0.44922 -0.56641,-0.64454 0,-0.27343 0.80078,-0.83984 0.89844,-0.60547 2.01172,-1.01562 1.11328,-0.41016 1.875,-0.41016 0.87891,0 1.66016,0.46875 0.80078,0.44922 1.40625,1.30859 0.60546,0.83985 0.91796,1.95313 0.33204,1.09375 0.33204,2.34375 0,2.07031 -0.78125,4.10156 -0.78125,2.01172 -2.05079,3.26172 -1.64062,1.58203 -3.96484,2.59766 -2.30469,0.99609 -4.39453,0.99609 -2.03125,0 -4.04297,-0.70313 -1.99219,-0.70312 -3.16406,-1.85546 -1.5625,-1.5625 -1.5625,-4.4336 0,-2.26562 1.11328,-4.53125 1.11328,-2.26562 3.00781,-4.10156 1.91406,-1.85547 4.19922,-2.91016 2.30469,-1.07422 4.64844,-1.07422 z"
       style=""
       id="path4575" />
    <path
       d="m 509.78598,509.02826 1.17188,-1.36719 q 1.77734,-1.97265 2.8125,-2.92968 1.05468,-0.97657 1.875,-1.40625 0.83984,-0.42969 1.69921,-0.42969 1.38672,0 1.95313,0.74219 0.56641,0.74218 0.56641,2.57812 0,0.76172 -0.15625,2.2461 -0.23438,1.97265 -0.23438,3.71093 0,1.95313 0.19531,3.16407 0.13672,0.74218 0.41016,1.48437 0.19531,0.70313 0.19531,0.95703 0,0.3125 -0.23437,0.48828 -0.60547,0.52735 -1.60157,0.91797 -0.99609,0.39063 -1.67968,0.39063 -1.11328,0 -2.03125,-0.76172 -0.89844,-0.76172 -1.40625,-2.10938 -0.48828,-1.34765 -0.48828,-3.04687 0,-1.13281 0.23437,-2.67578 l -0.0781,-0.0781 q -0.83985,0.9375 -1.36719,1.48438 -0.50781,0.54687 -0.95703,1.03515 -2.1875,2.5 -3.71094,4.51172 -0.58594,0.78125 -1.07422,1.36719 -0.72266,0.72266 -1.64062,0.72266 -1.25,0 -2.03125,-0.9375 -0.78125,-0.9375 -0.78125,-2.42188 0,-0.91797 0.21484,-2.24609 0.21484,-1.32813 0.56641,-2.83203 0.37109,-1.52344 0.85937,-3.125 0.50781,-1.60157 1.09375,-3.04688 0.89844,-2.40234 2.1875,-3.75 0.87891,-0.87891 2.12891,-0.87891 2.03125,0 2.03125,2.63672 0,1.9336 -0.80078,5.52735 z"
       style=""
       id="path4577" />
    <path
       d="m 534.21957,510.74701 v -1.13281 q -0.99609,0.87891 -1.48437,0.87891 -0.27344,0 -0.27344,-0.27344 0,-0.11719 0.11719,-0.48828 0.41016,-1.17188 0.41016,-2.26563 0,-1.58203 -0.6836,-3.28125 -0.29297,-0.8789 -0.72265,-0.8789 -0.21485,0 -0.35157,0.19531 -0.64453,0.74219 -1.23047,2.10937 -0.58593,1.34766 -0.97656,2.94922 -0.37109,1.58203 -0.37109,2.8125 0,2.32422 1.40625,2.32422 0.70312,0 1.875,-0.82031 1.1914,-0.83985 2.28515,-2.12891 z m 0.60547,-9.27734 0.19532,-0.80078 q 0.60546,-2.67578 1.09375,-4.31641 0.48828,-1.66016 0.99609,-2.79297 0.52734,-1.15234 1.03516,-1.66015 0.82031,-0.87891 2.94921,-0.87891 0.9375,0 1.38672,0.0977 0.46875,0.0976 0.74219,0.35156 -0.9375,2.91015 -1.30859,4.375 -0.35157,1.44531 -0.78125,3.98437 -0.66407,4.14063 -0.66407,7.48047 0,2.20703 0.35157,4.58985 0.37109,2.36328 1.1914,5.27343 -1.03515,0.72266 -1.99218,1.23047 -0.9375,0.50781 -1.79688,0.80078 -0.83984,0.29297 -1.48437,0.29297 -1.13282,0 -1.60157,-1.11328 -0.39062,-0.91797 -0.50781,-1.46484 -0.11719,-0.56641 -0.41016,-3.10547 -2.61718,2.73437 -5.01953,4.3164 -2.38281,1.5625 -3.80859,1.5625 -1.64063,0 -2.69531,-1.32812 -1.03516,-1.34766 -1.03516,-3.45703 0,-1.89453 0.80078,-4.19922 0.82031,-2.32422 2.2461,-4.49219 0.9375,-1.42578 1.91406,-2.40234 0.99609,-0.9961 2.24609,-1.83594 2.26563,-1.48437 3.78906,-1.48437 0.74219,0 2.16797,0.97656 z"
       style=""
       id="path4579" />
    <path
       d="m 549.80551,520.18061 q 1.15235,-0.0586 2.08985,-1.11329 0.95703,-1.07421 0.95703,-2.32421 0,-0.85938 -0.56641,-1.36719 -0.60547,-0.60547 -2.71484,-1.19141 -3.10547,-0.89844 -4.04297,-2.01172 -0.87891,-0.89843 -0.87891,-2.14843 0,-2.2461 1.6211,-4.49219 1.64062,-2.2461 4.17968,-3.67188 2.53907,-1.44531 5.11719,-1.44531 1.25,0 2.34375,0.58594 1.09375,0.58594 1.73828,1.5625 0.64453,0.95703 0.64453,2.08984 0,1.11328 -0.70312,2.30469 -0.70313,1.19141 -1.77735,1.99219 -1.05468,0.78125 -2.01171,0.78125 -0.54688,0 -0.95704,-0.23438 -0.39062,-0.23437 -0.39062,-0.50781 0,-0.27344 0.15625,-0.80078 0.42969,-1.67969 0.42969,-2.92969 0,-1.23047 -0.74219,-2.32422 -0.95703,0.66406 -1.25,1.05469 -0.74219,0.85937 -1.15234,1.95312 -0.44922,1.11329 -0.44922,2.10938 0,0.70312 0.3125,1.13281 0.33203,0.41016 1.05468,0.70313 0.74219,0.29297 2.22657,0.64453 2.48047,0.60547 3.49609,1.17187 0.23438,0.13672 0.72266,0.56641 0.74218,0.80078 0.74218,2.07031 0,1.34766 -0.83984,2.73438 -0.83984,1.36718 -2.59766,2.83203 -1.875,1.58203 -3.73046,2.26562 -1.85547,0.6836 -4.10157,0.6836 -2.16797,0 -3.41797,-0.85938 -1.23046,-0.85937 -1.23046,-2.34375 0,-1.05469 0.82031,-2.1289 0.82031,-1.09375 2.03125,-1.77735 1.23047,-0.68359 2.40234,-0.68359 0.87891,0 0.87891,0.39062 0,0.19532 -0.25391,0.64453 -0.76172,1.36719 -0.76172,2.51954 0,0.82031 0.60547,1.5625 z"
       style=""
       id="path4581" />
  </g>
  <path
     inkscape:connector-curvature="0"
     style="fill:#333333;fill-opacity:1;stroke:#000000;stroke-width:0;stroke-miterlimit:4;stroke-dasharray:none;stroke-opacity:1"
     d="m 43.403594,677.20365 33.615854,-16.45203 c 2.611405,-1.27805 5.742633,-0.20464 7.020688,2.40677 l 30.557064,62.43616 c 1.27805,2.61141 0.20463,5.74264 -2.40677,7.02069 l -33.615857,16.45203 c -2.611405,1.27806 -5.742632,0.20464 -7.020687,-2.40677 L 40.996825,684.22434 c -1.278055,-2.61141 -0.204636,-5.74263 2.406769,-7.02069 z"
     id="rect916" />
  <path
     style="fill:#ffffff;fill-opacity:1;stroke:#000000;stroke-width:0;stroke-miterlimit:4;stroke-dasharray:none;stroke-opacity:1"
     d="m 142.53861,703.92841 a 29.211807,29.211807 0 0 1 -29.2118,29.2118 29.211807,29.211807 0 0 1 -29.211812,-29.2118 29.211807,29.211807 0 0 1 29.211812,-29.21181 29.211807,29.211807 0 0 1 29.2118,29.21181 z"
     id="path945"
     inkscape:connector-curvature="0" />
  <path
     inkscape:connector-curvature="0"
     id="path852"
     d="M 120.93661,675.72522 A 30.343606,30.499213 0 0 1 143.11077,709.1919 30.343606,30.499213 0 0 1 113.00549,735.67058 30.343606,30.499213 0 0 1 82.946229,709.13913 30.343606,30.499213 0 0 1 105.17846,675.7114"
     style="fill:none;fill-opacity:1;stroke:#000000;stroke-width:3.59711933;stroke-miterlimit:4;stroke-dasharray:none;stroke-opacity:1" />
  <path
     inkscape:connector-curvature="0"
     id="path858"
     d="m 117.85582,674.67216 a 4.6682469,4.6682469 0 0 1 -4.66825,4.66825 4.6682469,4.6682469 0 0 1 -4.66824,-4.66825 4.6682469,4.6682469 0 0 1 4.66824,-4.66824 4.6682469,4.6682469 0 0 1 4.66825,4.66824 z"
     style="fill:#000000;fill-opacity:1;stroke:#000000;stroke-width:0;stroke-miterlimit:4;stroke-dasharray:none;stroke-opacity:1" />
  <path
     style="fill:#000000;stroke:#000000;stroke-width:0.03625018px;stroke-linecap:butt;stroke-linejoin:miter;stroke-opacity:1"
     d="m 128.54589,687.46495 c 0,0 -17.88126,12.20747 -19.00128,17.98502 -0.49831,2.5705 2.08168,4.87051 4.50697,3.8349 5.55805,-2.37331 14.49431,-21.81992 14.49431,-21.81992 z"
     id="path860"
     inkscape:connector-curvature="0"
     sodipodi:nodetypes="cssc" />
  <path
     inkscape:connector-curvature="0"
     id="path866"
     d="m 54.282686,683.77097 a 4.1589346,4.1193454 0 0 1 -4.158933,4.11935 4.1589346,4.1193454 0 0 1 -4.158933,-4.11935 4.1589346,4.1193454 0 0 1 4.158933,-4.11934 4.1589346,4.1193454 0 0 1 4.158933,4.11934 z"
     style="fill:#ffffff;fill-opacity:1;stroke:#000000;stroke-width:0;stroke-miterlimit:4;stroke-dasharray:none;stroke-opacity:1" />
  <path
     inkscape:connector-curvature="0"
     id="ellipse881"
     d="m 53.495825,683.63658 a 3.2043484,3.173846 0 0 1 -3.204349,3.17385 3.2043484,3.173846 0 0 1 -3.204349,-3.17385 3.2043484,3.173846 0 0 1 3.204349,-3.17384 3.2043484,3.173846 0 0 1 3.204349,3.17384 z"
     style="fill:#b3b3b3;fill-opacity:1;stroke:#000000;stroke-width:0;stroke-miterlimit:4;stroke-dasharray:none;stroke-opacity:1" />
  <path
     inkscape:connector-curvature="0"
     id="ellipse868"
     d="m 52.062284,683.7238 a 1.9594825,1.9408302 0 0 1 -1.959483,1.94083 1.9594825,1.9408302 0 0 1 -1.959484,-1.94083 1.9594825,1.9408302 0 0 1 1.959484,-1.94083 1.9594825,1.9408302 0 0 1 1.959483,1.94083 z"
     style="fill:#000000;fill-opacity:1;stroke:#000000;stroke-width:0;stroke-miterlimit:4;stroke-dasharray:none;stroke-opacity:1" />
  <g
     id="g879"
     transform="matrix(0.13202376,0,0,0.13202376,206.2413,670.99989)">
    <path
       inkscape:connector-curvature="0"
       id="rect870"
       d="m -1045.4329,-468.68335 h 54.62872 v 28.8903 h -54.62872 z"
       style="fill:#ffffff;fill-opacity:1;stroke:#000000;stroke-width:0;stroke-miterlimit:4;stroke-dasharray:none;stroke-opacity:1"
       transform="matrix(0.88112212,-0.4728888,0.41588162,0.90941876,0,0)" />
    <path
       inkscape:connector-curvature="0"
       id="path872"
       d="m -1032.5674,-454.30167 a 13.657173,14.44515 0 0 1 -13.6572,14.44515 13.657173,14.44515 0 0 1 -13.6572,-14.44515 13.657173,14.44515 0 0 1 13.6572,-14.44515 13.657173,14.44515 0 0 1 13.6572,14.44515 z"
       style="fill:#ffffff;fill-opacity:1;stroke:#000000;stroke-width:0;stroke-miterlimit:4;stroke-dasharray:none;stroke-opacity:1"
       transform="matrix(0.88112212,-0.4728888,0.41588162,0.90941876,0,0)" />
    <path
       inkscape:connector-curvature="0"
       id="circle874"
       d="m -977.93871,-454.36514 a 13.657173,14.44515 0 0 1 -13.65718,14.44515 13.657173,14.44515 0 0 1 -13.65721,-14.44515 13.657173,14.44515 0 0 1 13.65721,-14.44515 13.657173,14.44515 0 0 1 13.65718,14.44515 z"
       style="fill:#ffffff;fill-opacity:1;stroke:#000000;stroke-width:0;stroke-miterlimit:4;stroke-dasharray:none;stroke-opacity:1"
       transform="matrix(0.88112212,-0.4728888,0.41588162,0.90941876,0,0)" />
  </g>
</svg>
